SourceSans3-BlackItalic.ufo
<glyph name="comma" format="2">
	<unicode hex="002C"/>
	<advance width="310"/>
	<outline>
		<contour>
			<point x="-10" y="-196" type="line"/>
			<point x="136" y="-168"/>
			<point x="224" y="-62"/>
			<point x="224" y="76" type="curve" smooth="yes"/>
			<point x="224" y="144"/>
			<point x="190" y="184"/>
			<point x="130" y="184" type="curve" smooth="yes"/>
			<point x="66" y="184"/>
			<point x="26" y="136"/>
			<point x="26" y="82" type="curve" smooth="yes"/>
			<point x="26" y="32"/>
			<point x="64" y="2"/>
			<point x="116" y="2" type="curve" smooth="yes"/>
			<point x="132" y="2"/>
			<point x="148" y="12"/>
			<point x="162" y="20" type="curve"/>
			<point x="132" y="112" type="line"/>
			<point x="112" y="4" type="line"/>
			<point x="98" y="-44"/>
			<point x="56" y="-88"/>
			<point x="-26" y="-110" type="curve"/>
		</contour>
	</outline>
</glyph>
<glyph name="I" format="2">
	<unicode hex="0049"/>
	<advance width="312"/>
	<outline>
		<contour>
			<point x="26" y="0" type="line"/>
			<point x="186" y="0" type="line"/>
			<point x="316" y="650" type="line"/>
			<point x="156" y="650" type="line"/>
		</contour>
	</outline>
	<anchor name="aboveUC" x="240" y="672"/>
	<anchor name="belowLC" x="110" y="-22"/>
	<anchor name="ogonekUC" x="102" y="0"/>
</glyph>
<glyph name="bracketright" format="2">
	<unicode hex="005D"/>
	<advance width="344"/>
	<outline>
		<contour>
			<point x="-22" y="-152" type="line"/>
			<point x="190" y="-152" type="line"/>
			<point x="362" y="708" type="line"/>
			<point x="150" y="708" type="line"/>
			<point x="134" y="624" type="line"/>
			<point x="226" y="624" type="line"/>
			<point x="88" y="-68" type="line"/>
			<point x="-4" y="-68" type="line"/>
		</contour>
	</outline>
</glyph>
<glyph name="germandbls" format="2">
	<unicode hex="00DF"/>
	<advance width="630"/>
	<outline>
		<contour>
			<point x="388" y="-12" type="curve" smooth="yes"/>
			<point x="496" y="-12"/>
			<point x="582" y="68"/>
			<point x="582" y="170" type="curve" smooth="yes"/>
			<point x="582" y="284"/>
			<point x="470" y="316"/>
			<point x="470" y="360" type="curve" smooth="yes"/>
			<point x="470" y="408"/>
			<point x="586" y="442"/>
			<point x="586" y="552" type="curve" smooth="yes"/>
			<point x="586" y="662"/>
			<point x="480" y="708"/>
			<point x="374" y="708" type="curve" smooth="yes"/>
			<point x="224" y="708"/>
			<point x="132" y="618"/>
			<point x="108" y="498" type="curve" smooth="yes"/>
			<point x="8" y="0" type="line"/>
			<point x="168" y="0" type="line"/>
			<point x="262" y="468" type="line" smooth="yes"/>
			<point x="275" y="532"/>
			<point x="314" y="582"/>
			<point x="368" y="582" type="curve" smooth="yes"/>
			<point x="414" y="582"/>
			<point x="432" y="562"/>
			<point x="432" y="528" type="curve" smooth="yes"/>
			<point x="432" y="448"/>
			<point x="314" y="424"/>
			<point x="314" y="338" type="curve" smooth="yes"/>
			<point x="314" y="236"/>
			<point x="434" y="210"/>
			<point x="434" y="154" type="curve" smooth="yes"/>
			<point x="434" y="126"/>
			<point x="416" y="106"/>
			<point x="386" y="106" type="curve" smooth="yes"/>
			<point x="352" y="106"/>
			<point x="324" y="116"/>
			<point x="300" y="132" type="curve"/>
			<point x="246" y="32" type="line"/>
			<point x="288" y="-2"/>
			<point x="338" y="-12"/>
		</contour>
	</outline>
</glyph>
<glyph name="eogonek" format="2">
	<unicode hex="0119"/>
	<advance width="502"/>
	<outline>
		<contour>
			<point x="256" y="-220" type="curve" smooth="yes"/>
			<point x="306" y="-220"/>
			<point x="348" y="-204"/>
			<point x="380" y="-182" type="curve"/>
			<point x="350" y="-110" type="line"/>
			<point x="342" y="-114"/>
			<point x="334" y="-118"/>
			<point x="320" y="-118" type="curve" smooth="yes"/>
			<point x="302" y="-118"/>
			<point x="288" y="-108"/>
			<point x="288" y="-90" type="curve" smooth="yes"/>
			<point x="288" y="-50"/>
			<point x="319" y="-11"/>
			<point x="420" y="44" type="curve"/>
			<point x="368" y="138" type="line"/>
			<point x="346" y="122"/>
			<point x="308" y="110"/>
			<point x="280" y="110" type="curve" smooth="yes"/>
			<point x="222" y="110"/>
			<point x="174" y="134"/>
			<point x="174" y="216" type="curve" smooth="yes"/>
			<point x="174" y="354"/>
			<point x="246" y="390"/>
			<point x="288" y="390" type="curve" smooth="yes"/>
			<point x="330" y="390"/>
			<point x="344" y="364"/>
			<point x="344" y="330" type="curve" smooth="yes"/>
			<point x="344" y="321"/>
			<point x="342" y="313"/>
			<point x="340" y="306" type="curve"/>
			<point x="158" y="306" type="line"/>
			<point x="146" y="202" type="line"/>
			<point x="448" y="202" type="line"/>
			<point x="456" y="216"/>
			<point x="474" y="272"/>
			<point x="474" y="322" type="curve" smooth="yes"/>
			<point x="474" y="426"/>
			<point x="430" y="512"/>
			<point x="308" y="512" type="curve" smooth="yes"/>
			<point x="174" y="512"/>
			<point x="26" y="388"/>
			<point x="26" y="204" type="curve" smooth="yes"/>
			<point x="26" y="70"/>
			<point x="112" y="-12"/>
			<point x="246" y="-12" type="curve" smooth="yes"/>
			<point x="256" y="-12"/>
			<point x="259" y="-12"/>
			<point x="270" y="-10" type="curve"/>
			<point x="254" y="0" type="line"/>
			<point x="202" y="-36"/>
			<point x="160" y="-84"/>
			<point x="160" y="-136" type="curve" smooth="yes"/>
			<point x="160" y="-190"/>
			<point x="200" y="-220"/>
		</contour>
	</outline>
	<anchor name="aboveLC" x="320" y="522"/>
	<anchor name="belowLC" x="210" y="-182"/>
</glyph>
<glyph name="dotlessi" format="2">
	<unicode hex="0131"/>
	<advance width="276"/>
	<outline>
		<contour>
			<point x="8" y="0" type="line"/>
			<point x="168" y="0" type="line"/>
			<point x="268" y="500" type="line"/>
			<point x="108" y="500" type="line"/>
		</contour>
	</outline>
	<anchor name="aboveLC" x="190" y="522"/>
	<anchor name="belowLC" x="80" y="-22"/>
	<anchor name="ogonekLC" x="80" y="0"/>
</glyph>
<glyph name="kgreenlandic" format="2">
	<unicode hex="0138"/>
	<advance width="544"/>
	<outline>
		<contour>
			<point x="8" y="0" type="line"/>
			<point x="168" y="0" type="line"/>
			<point x="192" y="118" type="line"/>
			<point x="260" y="186" type="line"/>
			<point x="328" y="0" type="line"/>
			<point x="488" y="0" type="line"/>
			<point x="370" y="278" type="line"/>
			<point x="576" y="500" type="line"/>
			<point x="400" y="500" type="line"/>
			<point x="236" y="320" type="line"/>
			<point x="232" y="320" type="line"/>
			<point x="266" y="500" type="line"/>
			<point x="106" y="500" type="line"/>
		</contour>
	</outline>
</glyph>
<glyph name="Eng" format="2">
	<unicode hex="014A"/>
	<advance width="660"/>
	<outline>
		<contour>
			<point x="370" y="-12" type="curve" smooth="yes"/>
			<point x="532" y="-12"/>
			<point x="640" y="186"/>
			<point x="640" y="416" type="curve" smooth="yes"/>
			<point x="640" y="593"/>
			<point x="566" y="662"/>
			<point x="458" y="662" type="curve" smooth="yes"/>
			<point x="400" y="662"/>
			<point x="354" y="640"/>
			<point x="292" y="578" type="curve"/>
			<point x="308" y="650" type="line"/>
			<point x="156" y="650" type="line"/>
			<point x="26" y="0" type="line"/>
			<point x="186" y="0" type="line"/>
			<point x="272" y="438" type="line"/>
			<point x="322" y="500"/>
			<point x="366" y="524"/>
			<point x="403" y="524" type="curve" smooth="yes"/>
			<point x="449" y="524"/>
			<point x="476" y="490"/>
			<point x="476" y="406" type="curve" smooth="yes"/>
			<point x="476" y="266"/>
			<point x="410" y="126"/>
			<point x="350" y="126" type="curve" smooth="yes"/>
			<point x="338" y="126"/>
			<point x="328" y="128"/>
			<point x="320" y="132" type="curve"/>
			<point x="274" y="10" type="line"/>
			<point x="294" y="-3"/>
			<point x="335" y="-12"/>
		</contour>
	</outline>
	<anchor name="aboveUC" x="450" y="672"/>
	<anchor name="belowLC" x="290" y="-22"/>
</glyph>
<glyph name="tbar" format="2">
	<unicode hex="0167"/>
	<advance width="384"/>
	<outline>
		<contour>
			<point x="6" y="196" type="line"/>
			<point x="338" y="196" type="line"/>
			<point x="358" y="300" type="line"/>
			<point x="118" y="300" type="line"/>
			<point x="26" y="294" type="line"/>
		</contour>
		<component base="t"/>
	</outline>
	<anchor name="aboveLC" x="260" y="662"/>
	<anchor name="belowLC" x="180" y="-22"/>
</glyph>
<glyph name="Schwa" format="2">
	<unicode hex="018F"/>
	<advance width="680"/>
	<outline>
		<contour>
			<point x="308" y="-12" type="curve" smooth="yes"/>
			<point x="516" y="-12"/>
			<point x="658" y="156"/>
			<point x="658" y="386" type="curve" smooth="yes"/>
			<point x="658" y="564"/>
			<point x="551" y="662"/>
			<point x="398" y="662" type="curve" smooth="yes"/>
			<point x="293" y="662"/>
			<point x="218" y="626"/>
			<point x="154" y="574" type="curve"/>
			<point x="224" y="470" type="line"/>
			<point x="263" y="500"/>
			<point x="316" y="530"/>
			<point x="378" y="530" type="curve" smooth="yes"/>
			<point x="466" y="530"/>
			<point x="500" y="474"/>
			<point x="500" y="376" type="curve" smooth="yes"/>
			<point x="500" y="225"/>
			<point x="426" y="120"/>
			<point x="320" y="120" type="curve" smooth="yes"/>
			<point x="250" y="120"/>
			<point x="204" y="172"/>
			<point x="216" y="260" type="curve"/>
			<point x="512" y="260" type="line"/>
			<point x="536" y="376" type="line"/>
			<point x="90" y="376" type="line"/>
			<point x="72" y="328"/>
			<point x="66" y="292"/>
			<point x="66" y="240" type="curve" smooth="yes"/>
			<point x="66" y="85"/>
			<point x="162" y="-12"/>
		</contour>
	</outline>
	<anchor name="aboveUC" x="483" y="672"/>
	<anchor name="belowLC" x="333" y="-22"/>
</glyph>
<glyph name="lbar" format="2">
	<unicode hex="019A"/>
	<advance width="366"/>
	<outline>
		<contour>
			<point x="26" y="318" type="line"/>
			<point x="356" y="318" type="line"/>
			<point x="376" y="422" type="line"/>
			<point x="138" y="422" type="line"/>
			<point x="46" y="416" type="line"/>
		</contour>
		<component base="l" xOffset="40"/>
	</outline>
	<anchor name="aboveUC" x="270" y="722"/>
	<anchor name="belowLC" x="160" y="-22"/>
</glyph>
<glyph name="Ohorn" format="2">
	<unicode hex="01A0"/>
	<advance width="670"/>
	<outline>
		<contour>
			<point x="579" y="579" type="line"/>
			<point x="668" y="596"/>
			<point x="714" y="655"/>
			<point x="714" y="730" type="curve" smooth="yes"/>
			<point x="714" y="756"/>
			<point x="708" y="781"/>
			<point x="696" y="808" type="curve"/>
			<point x="578" y="772" type="line"/>
			<point x="585" y="755"/>
			<point x="590" y="738"/>
			<point x="590" y="722" type="curve" smooth="yes"/>
			<point x="590" y="681"/>
			<point x="567" y="639"/>
			<point x="511" y="633" type="curve"/>
		</contour>
		<component base="O"/>
	</outline>
	<anchor name="aboveUC" x="410" y="672"/>
	<anchor name="belowLC" x="290" y="-22"/>
</glyph>
<glyph name="clickretroflex" format="2">
	<unicode hex="01C3"/>
	<advance width="350"/>
	<outline>
		<contour>
			<point x="120" y="238" type="line"/>
			<point x="224" y="238" type="line"/>
			<point x="306" y="530" type="line"/>
			<point x="344" y="696" type="line"/>
			<point x="182" y="696" type="line"/>
			<point x="158" y="530" type="line"/>
		</contour>
		<contour>
			<point x="126" y="-12" type="curve" smooth="yes"/>
			<point x="192" y="-12"/>
			<point x="236" y="44"/>
			<point x="236" y="100" type="curve" smooth="yes"/>
			<point x="236" y="148"/>
			<point x="204" y="184"/>
			<point x="156" y="184" type="curve" smooth="yes"/>
			<point x="90" y="184"/>
			<point x="46" y="126"/>
			<point x="46" y="72" type="curve" smooth="yes"/>
			<point x="46" y="22"/>
			<point x="78" y="-12"/>
		</contour>
	</outline>
	<anchor name="aboveUC" x="270" y="722"/>
	<anchor name="belowLC" x="130" y="-22"/>
</glyph>
<glyph name="Gstroke" format="2">
	<unicode hex="01E4"/>
	<advance width="660"/>
	<outline>
		<contour>
			<point x="320" y="-12" type="curve" smooth="yes"/>
			<point x="404" y="-12"/>
			<point x="480" y="18"/>
			<point x="530" y="56" type="curve"/>
			<point x="592" y="378" type="line"/>
			<point x="454" y="378" type="line"/>
			<point x="404" y="140" type="line"/>
			<point x="389" y="130"/>
			<point x="367" y="124"/>
			<point x="348" y="124" type="curve" smooth="yes"/>
			<point x="256" y="124"/>
			<point x="220" y="180"/>
			<point x="220" y="274" type="curve" smooth="yes"/>
			<point x="220" y="414"/>
			<point x="304" y="524"/>
			<point x="404" y="524" type="curve" smooth="yes"/>
			<point x="444" y="524"/>
			<point x="482" y="510"/>
			<point x="510" y="472" type="curve"/>
			<point x="598" y="568" type="line"/>
			<point x="560" y="630"/>
			<point x="492" y="662"/>
			<point x="412" y="662" type="curve" smooth="yes"/>
			<point x="214" y="662"/>
			<point x="56" y="496"/>
			<point x="56" y="264" type="curve" smooth="yes"/>
			<point x="56" y="88"/>
			<point x="158" y="-12"/>
		</contour>
		<contour>
			<point x="326" y="210" type="line"/>
			<point x="630" y="210" type="line"/>
			<point x="650" y="312" type="line"/>
			<point x="442" y="312" type="line"/>
			<point x="346" y="306" type="line"/>
		</contour>
	</outline>
	<anchor name="aboveUC" x="410" y="672"/>
	<anchor name="belowLC" x="300" y="-22"/>
</glyph>
<glyph name="gstroke" format="2">
	<unicode hex="01E5"/>
	<advance width="590"/>
	<outline>
		<contour>
			<point x="240" y="218" type="line"/>
			<point x="570" y="218" type="line"/>
			<point x="590" y="322" type="line"/>
			<point x="356" y="322" type="line"/>
			<point x="260" y="316" type="line"/>
		</contour>
		<component base="g"/>
	</outline>
	<anchor name="aboveLC" x="310" y="522"/>
	<anchor name="belowLC" x="200" y="-182"/>
</glyph>
<glyph name="OU" format="2">
	<unicode hex="0222"/>
	<advance width="660"/>
	<outline>
		<contour>
			<point x="308" y="-12" type="curve" smooth="yes"/>
			<point x="515" y="-12"/>
			<point x="620" y="98"/>
			<point x="620" y="238" type="curve" smooth="yes"/>
			<point x="620" y="310"/>
			<point x="576" y="370"/>
			<point x="492" y="402" type="curve"/>
			<point x="486" y="368" type="line"/>
			<point x="570" y="394"/>
			<point x="616" y="454"/>
			<point x="646" y="576" type="curve" smooth="yes"/>
			<point x="664" y="650" type="line"/>
			<point x="508" y="650" type="line"/>
			<point x="492" y="576" type="line" smooth="yes"/>
			<point x="469" y="471"/>
			<point x="439" y="440"/>
			<point x="382" y="440" type="curve" smooth="yes"/>
			<point x="316" y="440"/>
			<point x="296" y="472"/>
			<point x="296" y="530" type="curve" smooth="yes"/>
			<point x="296" y="552"/>
			<point x="297" y="572"/>
			<point x="302" y="594" type="curve" smooth="yes"/>
			<point x="314" y="650" type="line"/>
			<point x="154" y="650" type="line"/>
			<point x="146" y="622" type="line" smooth="yes"/>
			<point x="137" y="592"/>
			<point x="136" y="553"/>
			<point x="136" y="526" type="curve" smooth="yes"/>
			<point x="136" y="456"/>
			<point x="160" y="398"/>
			<point x="246" y="368" type="curve"/>
			<point x="252" y="402" type="line"/>
			<point x="140" y="378"/>
			<point x="48" y="300"/>
			<point x="48" y="194" type="curve" smooth="yes"/>
			<point x="48" y="62"/>
			<point x="154" y="-12"/>
		</contour>
		<contour>
			<point x="326" y="126" type="curve" smooth="yes"/>
			<point x="254" y="126"/>
			<point x="212" y="166"/>
			<point x="212" y="216" type="curve" smooth="yes"/>
			<point x="212" y="272"/>
			<point x="262" y="324"/>
			<point x="342" y="324" type="curve" smooth="yes"/>
			<point x="414" y="324"/>
			<point x="456" y="286"/>
			<point x="456" y="232" type="curve" smooth="yes"/>
			<point x="456" y="176"/>
			<point x="404" y="126"/>
		</contour>
	</outline>
	<anchor name="aboveUC" x="410" y="672"/>
	<anchor name="belowLC" x="300" y="-22"/>
</glyph>
<glyph name="dotlessj" format="2">
	<unicode hex="0237"/>
	<advance width="278"/>
	<outline>
		<contour>
			<point x="-30" y="-188" type="curve" smooth="yes"/>
			<point x="92" y="-188"/>
			<point x="148" y="-102"/>
			<point x="170" y="2" type="curve" smooth="yes"/>
			<point x="270" y="500" type="line"/>
			<point x="110" y="500" type="line"/>
			<point x="12" y="10" type="line" smooth="yes"/>
			<point x="0" y="-42"/>
			<point x="-12" y="-62"/>
			<point x="-44" y="-62" type="curve" smooth="yes"/>
			<point x="-60" y="-62"/>
			<point x="-74" y="-58"/>
			<point x="-88" y="-52" type="curve"/>
			<point x="-130" y="-164" type="line"/>
			<point x="-100" y="-182"/>
			<point x="-65" y="-188"/>
		</contour>
	</outline>
	<anchor name="aboveLC" x="190" y="522"/>
	<anchor name="belowLC" x="10" y="-182"/>
</glyph>
<glyph name="Astroke" format="2">
	<unicode hex="023A"/>
	<advance width="562"/>
	<outline>
		<contour>
			<point x="160" y="-66" type="line"/>
			<point x="494" y="706" type="line"/>
			<point x="454" y="716" type="line"/>
			<point x="120" y="-56" type="line"/>
		</contour>
		<component base="A"/>
	</outline>
	<anchor name="aboveUC" x="370" y="672"/>
	<anchor name="belowLC" x="230" y="-22"/>
</glyph>
<glyph name="Tstroke" format="2">
	<unicode hex="023E"/>
	<advance width="540"/>
	<outline>
		<contour>
			<point x="14" y="-50" type="line"/>
			<point x="674" y="682" type="line"/>
			<point x="644" y="708" type="line"/>
			<point x="-16" y="-24" type="line"/>
		</contour>
		<component base="T"/>
	</outline>
	<anchor name="aboveUC" x="350" y="672"/>
	<anchor name="belowLC" x="220" y="-22"/>
</glyph>
<glyph name="oopen" format="2">
	<unicode hex="0254"/>
	<advance width="459"/>
	<outline>
		<contour>
			<point x="140" y="-12" type="curve" smooth="yes"/>
			<point x="296" y="-12"/>
			<point x="440" y="110"/>
			<point x="440" y="304" type="curve" smooth="yes"/>
			<point x="440" y="436"/>
			<point x="358" y="512"/>
			<point x="249" y="512" type="curve" smooth="yes"/>
			<point x="178" y="512"/>
			<point x="115" y="484"/>
			<point x="71" y="450" type="curve"/>
			<point x="134" y="354" type="line"/>
			<point x="164" y="376"/>
			<point x="184" y="384"/>
			<point x="208" y="384" type="curve" smooth="yes"/>
			<point x="248" y="384"/>
			<point x="276" y="354"/>
			<point x="276" y="288" type="curve" smooth="yes"/>
			<point x="276" y="178"/>
			<point x="216" y="116"/>
			<point x="146" y="116" type="curve" smooth="yes"/>
			<point x="117" y="116"/>
			<point x="91" y="132"/>
			<point x="70" y="152" type="curve"/>
			<point x="-12" y="50" type="line"/>
			<point x="19" y="12"/>
			<point x="76" y="-12"/>
		</contour>
	</outline>
	<anchor name="aboveLC" x="280" y="522"/>
	<anchor name="baseLC" x="170" y="0"/>
	<anchor name="belowLC" x="170" y="-22"/>
	<anchor name="ogonekLC" x="170" y="0"/>
</glyph>
<glyph name="eopenreversed" format="2">
	<unicode hex="025C"/>
	<advance width="454"/>
	<outline>
		<contour>
			<point x="168" y="-12" type="curve" smooth="yes"/>
			<point x="284" y="-12"/>
			<point x="402" y="58"/>
			<point x="402" y="162" type="curve" smooth="yes"/>
			<point x="402" y="210"/>
			<point x="378" y="242"/>
			<point x="318" y="258" type="curve"/>
			<point x="318" y="262" type="line"/>
			<point x="382" y="282"/>
			<point x="424" y="330"/>
			<point x="424" y="388" type="curve" smooth="yes"/>
			<point x="424" y="468"/>
			<point x="348" y="512"/>
			<point x="258" y="512" type="curve" smooth="yes"/>
			<point x="197" y="512"/>
			<point x="139" y="499"/>
			<point x="80" y="468" type="curve"/>
			<point x="122" y="366" type="line"/>
			<point x="155" y="381"/>
			<point x="181" y="390"/>
			<point x="214" y="390" type="curve" smooth="yes"/>
			<point x="244" y="390"/>
			<point x="264" y="376"/>
			<point x="264" y="354" type="curve" smooth="yes"/>
			<point x="264" y="326"/>
			<point x="240" y="306"/>
			<point x="200" y="306" type="curve" smooth="yes"/>
			<point x="142" y="306" type="line"/>
			<point x="120" y="202" type="line"/>
			<point x="182" y="202" type="line" smooth="yes"/>
			<point x="222" y="202"/>
			<point x="242" y="190"/>
			<point x="242" y="164" type="curve" smooth="yes"/>
			<point x="242" y="130"/>
			<point x="209" y="110"/>
			<point x="162" y="110" type="curve" smooth="yes"/>
			<point x="130" y="110"/>
			<point x="90" y="116"/>
			<point x="56" y="136" type="curve"/>
			<point x="4" y="36" type="line"/>
			<point x="54" y="-2"/>
			<point x="116" y="-12"/>
		</contour>
	</outline>
	<anchor name="aboveLC" x="270" y="522"/>
	<anchor name="belowLC" x="170" y="-22"/>
</glyph>
<glyph name="tturned" format="2">
	<unicode hex="0287"/>
	<advance width="384"/>
	<outline>
		<contour>
			<point x="60" y="-150" type="line"/>
			<point x="194" y="-150" type="line"/>
			<point x="242" y="0" type="line"/>
			<point x="314" y="6" type="line"/>
			<point x="338" y="124" type="line"/>
			<point x="274" y="124" type="line"/>
			<point x="312" y="306" type="line" smooth="yes"/>
			<point x="316" y="328"/>
			<point x="320" y="350"/>
			<point x="320" y="372" type="curve" smooth="yes"/>
			<point x="320" y="454"/>
			<point x="276" y="512"/>
			<point x="170" y="512" type="curve" smooth="yes"/>
			<point x="118" y="512"/>
			<point x="72" y="500"/>
			<point x="44" y="488" type="curve"/>
			<point x="72" y="380" type="line"/>
			<point x="84" y="384"/>
			<point x="98" y="388"/>
			<point x="112" y="388" type="curve" smooth="yes"/>
			<point x="138" y="388"/>
			<point x="156" y="374"/>
			<point x="156" y="344" type="curve" smooth="yes"/>
			<point x="156" y="334"/>
			<point x="156" y="324"/>
			<point x="154" y="312" type="curve" smooth="yes"/>
			<point x="116" y="124" type="line"/>
			<point x="4" y="124" type="line"/>
			<point x="-20" y="0" type="line"/>
			<point x="88" y="0" type="line"/>
		</contour>
	</outline>
	<anchor name="aboveLC" x="220" y="522"/>
	<anchor name="belowLC" x="130" y="-162"/>
</glyph>
<glyph name="glottalstop" format="2">
	<unicode hex="0294"/>
	<advance width="442"/>
	<outline>
		<contour>
			<point x="68" y="0" type="line"/>
			<point x="228" y="0" type="line"/>
			<point x="278" y="252" type="line"/>
			<point x="409" y="326"/>
			<point x="478" y="422"/>
			<point x="478" y="538" type="curve" smooth="yes"/>
			<point x="478" y="652"/>
			<point x="396" y="708"/>
			<point x="295" y="708" type="curve" smooth="yes"/>
			<point x="196" y="708"/>
			<point x="122" y="670"/>
			<point x="62" y="620" type="curve"/>
			<point x="128" y="524" type="line"/>
			<point x="166" y="556"/>
			<point x="208" y="580"/>
			<point x="248" y="580" type="curve" smooth="yes"/>
			<point x="288" y="580"/>
			<point x="314" y="556"/>
			<point x="314" y="506" type="curve" smooth="yes"/>
			<point x="314" y="440"/>
			<point x="267" y="386"/>
			<point x="130" y="314" type="curve"/>
		</contour>
	</outline>
	<anchor name="aboveUC" x="320" y="722"/>
	<anchor name="belowLC" x="140" y="-22"/>
</glyph>
<glyph name="hsmall" format="2">
	<unicode hex="029C"/>
	<advance width="568"/>
	<outline>
		<contour>
			<point x="8" y="0" type="line"/>
			<point x="168" y="0" type="line"/>
			<point x="204" y="184" type="line"/>
			<point x="335" y="184" type="line"/>
			<point x="298" y="0" type="line"/>
			<point x="458" y="0" type="line"/>
			<point x="558" y="500" type="line"/>
			<point x="398" y="500" type="line"/>
			<point x="362" y="322" type="line"/>
			<point x="232" y="322" type="line"/>
			<point x="268" y="500" type="line"/>
			<point x="108" y="500" type="line"/>
		</contour>
	</outline>
	<anchor name="aboveLC" x="330" y="522"/>
	<anchor name="belowLC" x="230" y="-22"/>
</glyph>
<glyph name="glottalstopstroke" format="2">
	<unicode hex="02A1"/>
	<advance width="442"/>
	<outline>
		<contour>
			<point x="-18" y="116" type="line"/>
			<point x="352" y="116" type="line"/>
			<point x="370" y="212" type="line"/>
			<point x="108" y="212" type="line"/>
			<point x="0" y="206" type="line"/>
		</contour>
		<component base="glottalstop"/>
	</outline>
	<anchor name="aboveUC" x="320" y="722"/>
	<anchor name="belowLC" x="140" y="-22"/>
</glyph>
<glyph name="j.sups" format="2">
	<unicode hex="02B2"/>
	<advance width="188"/>
	<outline>
		<contour>
			<point x="40" y="236" type="curve" smooth="yes"/>
			<point x="122" y="236"/>
			<point x="160" y="289"/>
			<point x="174" y="358" type="curve" smooth="yes"/>
			<point x="242" y="700" type="line"/>
			<point x="130" y="700" type="line"/>
			<point x="64" y="368" type="line" smooth="yes"/>
			<point x="57" y="333"/>
			<point x="51" y="322"/>
			<point x="30" y="322" type="curve" smooth="yes"/>
			<point x="21" y="322"/>
			<point x="12" y="324"/>
			<point x="2" y="328" type="curve"/>
			<point x="-31" y="251" type="line"/>
			<point x="-6" y="239"/>
			<point x="16" y="236"/>
		</contour>
		<contour>
			<point x="202" y="740" type="curve" smooth="yes"/>
			<point x="238" y="740"/>
			<point x="268" y="768"/>
			<point x="268" y="800" type="curve" smooth="yes"/>
			<point x="268" y="834"/>
			<point x="240" y="850"/>
			<point x="210" y="850" type="curve" smooth="yes"/>
			<point x="174" y="850"/>
			<point x="144" y="822"/>
			<point x="144" y="790" type="curve" smooth="yes"/>
			<point x="144" y="756"/>
			<point x="172" y="740"/>
		</contour>
	</outline>
</glyph>
<glyph name="brevecmb" format="2">
	<unicode hex="0306"/>
	<outline>
		<contour>
			<point x="112" y="572" type="curve" smooth="yes"/>
			<point x="234" y="572"/>
			<point x="296" y="638"/>
			<point x="314" y="732" type="curve"/>
			<point x="222" y="748" type="line"/>
			<point x="208" y="708"/>
			<point x="180" y="678"/>
			<point x="132" y="678" type="curve" smooth="yes"/>
			<point x="88" y="678"/>
			<point x="64" y="702"/>
			<point x="64" y="748" type="curve"/>
			<point x="-36" y="732" type="line"/>
			<point x="-36" y="620"/>
			<point x="22" y="572"/>
		</contour>
	</outline>
	<anchor name="_aboveLC" x="100" y="522"/>
</glyph>
<glyph name="caroncmb" format="2">
	<unicode hex="030C"/>
	<outline>
		<contour>
			<point x="40" y="570" type="line"/>
			<point x="200" y="570" type="line"/>
			<point x="360" y="770" type="line"/>
			<point x="230" y="770" type="line"/>
			<point x="136" y="682" type="line"/>
			<point x="132" y="682" type="line"/>
			<point x="80" y="770" type="line"/>
			<point x="-40" y="770" type="line"/>
		</contour>
	</outline>
	<anchor name="_aboveLC" x="100" y="522"/>
	<anchor name="aboveLC" x="140" y="742"/>
</glyph>
<glyph name="commaturnedabovecmb" format="2">
	<unicode hex="0312"/>
	<outline>
		<contour>
			<point x="120" y="570" type="curve" smooth="yes"/>
			<point x="166" y="570"/>
			<point x="208" y="601"/>
			<point x="208" y="646" type="curve" smooth="yes"/>
			<point x="208" y="682"/>
			<point x="184" y="706"/>
			<point x="142" y="706" type="curve" smooth="yes"/>
			<point x="130" y="706"/>
			<point x="120" y="704"/>
			<point x="110" y="700" type="curve"/>
			<point x="122" y="738"/>
			<point x="164" y="758"/>
			<point x="212" y="766" type="curve"/>
			<point x="198" y="826" type="line"/>
			<point x="88" y="808"/>
			<point x="30" y="740"/>
			<point x="30" y="658" type="curve" smooth="yes"/>
			<point x="30" y="604"/>
			<point x="68" y="570"/>
		</contour>
	</outline>
	<anchor name="_aboveLC" x="100" y="522"/>
</glyph>
<glyph name="cedillacmb" format="2">
	<unicode hex="0327"/>
	<outline>
		<contour>
			<point x="-150" y="-244" type="line"/>
			<point x="-16" y="-240"/>
			<point x="66" y="-208"/>
			<point x="80" y="-136" type="curve" smooth="yes"/>
			<point x="86" y="-94"/>
			<point x="64" y="-72"/>
			<point x="14" y="-60" type="curve"/>
			<point x="54" y="4" type="line"/>
			<point x="-44" y="4" type="line"/>
			<point x="-112" y="-96" type="line"/>
			<point x="-52" y="-104"/>
			<point x="-40" y="-118"/>
			<point x="-42" y="-136" type="curve" smooth="yes"/>
			<point x="-48" y="-164"/>
			<point x="-74" y="-174"/>
			<point x="-150" y="-178" type="curve"/>
		</contour>
	</outline>
	<anchor name="_baseLC" x="0" y="0"/>
</glyph>
<glyph name="iotasubscriptcmb" format="2">
	<unicode hex="0345"/>
	<outline>
		<contour>
			<point x="14" y="-222" type="curve" smooth="yes"/>
			<point x="45" y="-222"/>
			<point x="68" y="-217"/>
			<point x="84" y="-210" type="curve"/>
			<point x="76" y="-120" type="line"/>
			<point x="68" y="-122"/>
			<point x="62" y="-122"/>
			<point x="60" y="-122" type="curve" smooth="yes"/>
			<point x="48" y="-122"/>
			<point x="36" y="-117"/>
			<point x="36" y="-98" type="curve" smooth="yes"/>
			<point x="36" y="-90"/>
			<point x="38" y="-73"/>
			<point x="46" y="-52" type="curve"/>
			<point x="-70" y="-52" type="line"/>
			<point x="-80" y="-95"/>
			<point x="-82" y="-116"/>
			<point x="-82" y="-132" type="curve" smooth="yes"/>
			<point x="-82" y="-187"/>
			<point x="-55" y="-222"/>
		</contour>
	</outline>
	<anchor name="_belowLC" x="0" y="-22"/>
</glyph>
<glyph name="breveinverteddoublecmb" format="2">
	<unicode hex="0361"/>
	<outline>
		<contour>
			<point x="-334" y="532" type="line"/>
			<point x="-198" y="604"/>
			<point x="-38" y="626"/>
			<point x="74" y="626" type="curve" smooth="yes"/>
			<point x="190" y="626"/>
			<point x="344" y="605"/>
			<point x="454" y="532" type="curve"/>
			<point x="508" y="604" type="line"/>
			<point x="392" y="686"/>
			<point x="246" y="726"/>
			<point x="94" y="726" type="curve" smooth="yes"/>
			<point x="-58" y="726"/>
			<point x="-221" y="686"/>
			<point x="-370" y="604" type="curve"/>
		</contour>
	</outline>
</glyph>
<glyph name="Gamma" format="2">
	<unicode hex="0393"/>
	<advance width="504"/>
	<outline>
		<contour>
			<point x="26" y="0" type="line"/>
			<point x="186" y="0" type="line"/>
			<point x="288" y="516" type="line"/>
			<point x="532" y="516" type="line"/>
			<point x="558" y="650" type="line"/>
			<point x="156" y="650" type="line"/>
		</contour>
	</outline>
	<anchor name="aboveUC" x="360" y="672"/>
</glyph>
<glyph name="Pi" format="2">
	<unicode hex="03A0"/>
	<advance width="660"/>
	<outline>
		<contour>
			<point x="26" y="0" type="line"/>
			<point x="186" y="0" type="line"/>
			<point x="288" y="516" type="line"/>
			<point x="478" y="516" type="line"/>
			<point x="374" y="0" type="line"/>
			<point x="534" y="0" type="line"/>
			<point x="664" y="650" type="line"/>
			<point x="156" y="650" type="line"/>
		</contour>
	</outline>
</glyph>
<glyph name="eta" format="2">
	<unicode hex="03B7"/>
	<advance width="548"/>
	<outline>
		<contour>
			<point x="244" y="-176" type="curve"/>
			<point x="406" y="-176" type="line"/>
			<point x="502" y="308" type="line" smooth="yes"/>
			<point x="508" y="338"/>
			<point x="512" y="366"/>
			<point x="512" y="390" type="curve" smooth="yes"/>
			<point x="512" y="466"/>
			<point x="480" y="512"/>
			<point x="406" y="512" type="curve" smooth="yes"/>
			<point x="334" y="512"/>
			<point x="283" y="467"/>
			<point x="233" y="414" type="curve"/>
			<point x="230" y="414" type="line"/>
			<point x="234" y="440"/>
			<point x="236" y="470"/>
			<point x="238" y="500" type="curve"/>
			<point x="92" y="500" type="line"/>
			<point x="90" y="424"/>
			<point x="84" y="386"/>
			<point x="76" y="346" type="curve" smooth="yes"/>
			<point x="8" y="0" type="line"/>
			<point x="168" y="0" type="line"/>
			<point x="228" y="310" type="line"/>
			<point x="262" y="353"/>
			<point x="292" y="376"/>
			<point x="322" y="376" type="curve" smooth="yes"/>
			<point x="344" y="376"/>
			<point x="356" y="362"/>
			<point x="356" y="328" type="curve" smooth="yes"/>
			<point x="356" y="296"/>
			<point x="298" y="36"/>
		</contour>
	</outline>
	<anchor name="aboveLC" x="340" y="522"/>
	<anchor name="belowLC" x="90" y="-22"/>
</glyph>
<glyph name="pi" format="2">
	<unicode hex="03C0"/>
	<advance width="616"/>
	<outline>
		<contour>
			<point x="455" y="-12" type="curve" smooth="yes"/>
			<point x="490" y="-12"/>
			<point x="518" y="-4"/>
			<point x="537" y="3" type="curve"/>
			<point x="541" y="119" type="line"/>
			<point x="532" y="117"/>
			<point x="526" y="115"/>
			<point x="519" y="115" type="curve" smooth="yes"/>
			<point x="497" y="115"/>
			<point x="484" y="123"/>
			<point x="484" y="147" type="curve" smooth="yes"/>
			<point x="484" y="162"/>
			<point x="508" y="286"/>
			<point x="534" y="376" type="curve"/>
			<point x="610" y="376" type="line"/>
			<point x="634" y="500" type="line"/>
			<point x="144" y="500" type="line"/>
			<point x="70" y="494" type="line"/>
			<point x="46" y="376" type="line"/>
			<point x="146" y="376" type="line"/>
			<point x="125" y="270"/>
			<point x="86" y="134"/>
			<point x="36" y="0" type="curve"/>
			<point x="192" y="-12" type="line"/>
			<point x="234" y="110"/>
			<point x="269" y="260"/>
			<point x="292" y="376" type="curve"/>
			<point x="384" y="376" type="line"/>
			<point x="364" y="288"/>
			<point x="330" y="172"/>
			<point x="330" y="114" type="curve" smooth="yes"/>
			<point x="330" y="38"/>
			<point x="366" y="-12"/>
		</contour>
	</outline>
	<anchor name="aboveLC" x="370" y="522"/>
	<anchor name="belowLC" x="300" y="-22"/>
</glyph>
<glyph name="rho" format="2">
	<unicode hex="03C1"/>
	<advance width="560"/>
	<outline>
		<contour>
			<point x="-28" y="-176" type="line"/>
			<point x="134" y="-176" type="line"/>
			<point x="140" y="-106"/>
			<point x="150" y="-34"/>
			<point x="164" y="42" type="curve"/>
			<point x="192" y="8"/>
			<point x="236" y="-12"/>
			<point x="286" y="-12" type="curve" smooth="yes"/>
			<point x="397" y="-12"/>
			<point x="528" y="108"/>
			<point x="528" y="297" type="curve" smooth="yes"/>
			<point x="528" y="430"/>
			<point x="452" y="512"/>
			<point x="322" y="512" type="curve" smooth="yes"/>
			<point x="196" y="512"/>
			<point x="96" y="434"/>
			<point x="56" y="238" type="curve" smooth="yes"/>
		</contour>
		<contour>
			<point x="254" y="116" type="curve" smooth="yes"/>
			<point x="230" y="116"/>
			<point x="206" y="126"/>
			<point x="186" y="148" type="curve"/>
			<point x="210" y="254" type="line" smooth="yes"/>
			<point x="230" y="342"/>
			<point x="264" y="384"/>
			<point x="304" y="384" type="curve" smooth="yes"/>
			<point x="344" y="384"/>
			<point x="366" y="356"/>
			<point x="366" y="302" type="curve" smooth="yes"/>
			<point x="366" y="182"/>
			<point x="312" y="116"/>
		</contour>
	</outline>
	<anchor name="aboveLC" x="340" y="522"/>
	<anchor name="belowLC" x="60" y="-182"/>
</glyph>
<glyph name="beta.a" format="2">
	<unicode hex="03D0"/>
	<advance width="576"/>
	<outline>
		<contour>
			<point x="250" y="-12" type="curve" smooth="yes"/>
			<point x="390" y="-12"/>
			<point x="534" y="80"/>
			<point x="534" y="232" type="curve" smooth="yes"/>
			<point x="534" y="294"/>
			<point x="490" y="354"/>
			<point x="422" y="366" type="curve"/>
			<point x="422" y="370" type="line"/>
			<point x="498" y="402"/>
			<point x="556" y="464"/>
			<point x="556" y="550" type="curve" smooth="yes"/>
			<point x="556" y="658"/>
			<point x="482" y="708"/>
			<point x="364" y="708" type="curve" smooth="yes"/>
			<point x="242" y="708"/>
			<point x="144" y="622"/>
			<point x="104" y="462" type="curve" smooth="yes"/>
			<point x="58" y="280" type="line" smooth="yes"/>
			<point x="48" y="242"/>
			<point x="46" y="214"/>
			<point x="46" y="182" type="curve" smooth="yes"/>
			<point x="46" y="52"/>
			<point x="126" y="-12"/>
		</contour>
		<contour>
			<point x="268" y="116" type="curve" smooth="yes"/>
			<point x="216" y="116"/>
			<point x="192" y="150"/>
			<point x="192" y="204" type="curve" smooth="yes"/>
			<point x="192" y="236"/>
			<point x="210" y="300"/>
			<point x="242" y="430" type="curve" smooth="yes"/>
			<point x="265" y="521"/>
			<point x="296" y="580"/>
			<point x="352" y="580" type="curve" smooth="yes"/>
			<point x="378" y="580"/>
			<point x="402" y="562"/>
			<point x="402" y="528" type="curve" smooth="yes"/>
			<point x="402" y="450"/>
			<point x="344" y="406"/>
			<point x="163" y="374" type="curve"/>
			<point x="159" y="261" type="line"/>
			<point x="236" y="290"/>
			<point x="278" y="300"/>
			<point x="306" y="300" type="curve" smooth="yes"/>
			<point x="360" y="300"/>
			<point x="380" y="268"/>
			<point x="380" y="230" type="curve" smooth="yes"/>
			<point x="380" y="168"/>
			<point x="330" y="116"/>
		</contour>
	</outline>
	<anchor name="aboveUC" x="390" y="722"/>
	<anchor name="belowLC" x="240" y="-22"/>
</glyph>
<glyph name="zhe" format="2">
	<unicode hex="0436"/>
	<advance width="750"/>
	<outline>
		<contour>
			<point x="-56" y="0" type="line"/>
			<point x="120" y="0" type="line"/>
			<point x="238" y="184" type="line"/>
			<point x="294" y="184" type="line"/>
			<point x="258" y="0" type="line"/>
			<point x="404" y="0" type="line"/>
			<point x="440" y="184" type="line"/>
			<point x="496" y="184" type="line"/>
			<point x="542" y="0" type="line"/>
			<point x="706" y="0" type="line"/>
			<point x="620" y="250" type="line"/>
			<point x="658" y="306" type="line" smooth="yes"/>
			<point x="680" y="338"/>
			<point x="690" y="350"/>
			<point x="706" y="350" type="curve" smooth="yes"/>
			<point x="714" y="350"/>
			<point x="720" y="348"/>
			<point x="726" y="346" type="curve"/>
			<point x="770" y="504" type="line"/>
			<point x="760" y="508"/>
			<point x="742" y="512"/>
			<point x="724" y="512" type="curve" smooth="yes"/>
			<point x="668" y="512"/>
			<point x="618" y="484"/>
			<point x="572" y="408" type="curve" smooth="yes"/>
			<point x="520" y="322" type="line"/>
			<point x="468" y="322" type="line"/>
			<point x="504" y="500" type="line"/>
			<point x="358" y="500" type="line"/>
			<point x="322" y="322" type="line"/>
			<point x="270" y="322" type="line"/>
			<point x="246" y="408" type="line" smooth="yes"/>
			<point x="224" y="486"/>
			<point x="184" y="512"/>
			<point x="110" y="512" type="curve" smooth="yes"/>
			<point x="92" y="512"/>
			<point x="72" y="508"/>
			<point x="56" y="502" type="curve"/>
			<point x="76" y="346" type="line"/>
			<point x="82" y="348"/>
			<point x="89" y="350"/>
			<point x="98" y="350" type="curve" smooth="yes"/>
			<point x="116" y="350"/>
			<point x="127" y="340"/>
			<point x="138" y="306" type="curve" smooth="yes"/>
			<point x="148" y="274" type="line"/>
		</contour>
	</outline>
	<anchor name="aboveLC" x="430" y="522"/>
</glyph>
<glyph name="shcha" format="2">
	<unicode hex="0449"/>
	<advance width="870"/>
	<outline>
		<contour>
			<point x="628" y="-172" type="line"/>
			<point x="752" y="-172" type="line"/>
			<point x="810" y="18" type="line"/>
			<point x="826" y="114" type="line"/>
			<point x="777" y="114"/>
			<point x="758" y="126"/>
			<point x="758" y="156" type="curve" smooth="yes"/>
			<point x="758" y="162"/>
			<point x="759" y="168"/>
			<point x="760" y="174" type="curve" smooth="yes"/>
			<point x="824" y="500" type="line"/>
			<point x="664" y="500" type="line"/>
			<point x="602" y="180" type="line"/>
			<point x="566" y="142"/>
			<point x="540" y="124"/>
			<point x="518" y="124" type="curve" smooth="yes"/>
			<point x="494" y="124"/>
			<point x="478" y="138"/>
			<point x="478" y="166" type="curve" smooth="yes"/>
			<point x="478" y="178"/>
			<point x="482" y="192"/>
			<point x="486" y="210" type="curve" smooth="yes"/>
			<point x="544" y="500" type="line"/>
			<point x="384" y="500" type="line"/>
			<point x="320" y="180" type="line"/>
			<point x="284" y="142"/>
			<point x="258" y="124"/>
			<point x="238" y="124" type="curve" smooth="yes"/>
			<point x="212" y="124"/>
			<point x="196" y="138"/>
			<point x="196" y="166" type="curve" smooth="yes"/>
			<point x="196" y="178"/>
			<point x="200" y="192"/>
			<point x="204" y="210" type="curve" smooth="yes"/>
			<point x="262" y="500" type="line"/>
			<point x="102" y="500" type="line"/>
			<point x="40" y="190" type="line" smooth="yes"/>
			<point x="35" y="166"/>
			<point x="32" y="140"/>
			<point x="32" y="118" type="curve" smooth="yes"/>
			<point x="32" y="32"/>
			<point x="68" y="-12"/>
			<point x="150" y="-12" type="curve" smooth="yes"/>
			<point x="208" y="-12"/>
			<point x="264" y="24"/>
			<point x="316" y="72" type="curve"/>
			<point x="332" y="20"/>
			<point x="360" y="-12"/>
			<point x="432" y="-12" type="curve" smooth="yes"/>
			<point x="491" y="-12"/>
			<point x="548" y="26"/>
			<point x="592" y="66" type="curve"/>
			<point x="596" y="66" type="line"/>
			<point x="596" y="66"/>
			<point x="596" y="66"/>
			<point x="596" y="66" type="curve" smooth="yes"/>
			<point x="598" y="36"/>
			<point x="626" y="8"/>
			<point x="656" y="4" type="curve"/>
		</contour>
	</outline>
</glyph>
<glyph name="yeru" format="2">
	<unicode hex="044B"/>
	<advance width="748"/>
	<outline>
		<contour>
			<point x="208" y="-12" type="curve" smooth="yes"/>
			<point x="340" y="-12"/>
			<point x="448" y="88"/>
			<point x="448" y="208" type="curve" smooth="yes"/>
			<point x="448" y="288"/>
			<point x="398" y="342"/>
			<point x="312" y="342" type="curve" smooth="yes"/>
			<point x="282" y="342"/>
			<point x="262" y="338"/>
			<point x="234" y="328" type="curve"/>
			<point x="280" y="500" type="line"/>
			<point x="118" y="500" type="line"/>
			<point x="46" y="230" type="line" smooth="yes"/>
			<point x="42" y="214"/>
			<point x="34" y="176"/>
			<point x="34" y="142" type="curve" smooth="yes"/>
			<point x="34" y="54"/>
			<point x="100" y="-12"/>
		</contour>
		<contour>
			<point x="238" y="108" type="curve" smooth="yes"/>
			<point x="210" y="108"/>
			<point x="192" y="128"/>
			<point x="192" y="158" type="curve" smooth="yes"/>
			<point x="192" y="176"/>
			<point x="196" y="190"/>
			<point x="204" y="210" type="curve"/>
			<point x="225" y="219"/>
			<point x="235" y="224"/>
			<point x="252" y="224" type="curve" smooth="yes"/>
			<point x="282" y="224"/>
			<point x="300" y="208"/>
			<point x="300" y="178" type="curve" smooth="yes"/>
			<point x="300" y="140"/>
			<point x="272" y="108"/>
		</contour>
		<contour>
			<point x="478" y="0" type="line"/>
			<point x="638" y="0" type="line"/>
			<point x="738" y="500" type="line"/>
			<point x="578" y="500" type="line"/>
		</contour>
	</outline>
	<anchor name="aboveLC" x="420" y="522"/>
</glyph>
<glyph name="ecyr" format="2">
	<unicode hex="044D"/>
	<advance width="470"/>
	<outline>
		<contour>
			<point x="156" y="-12" type="curve" smooth="yes"/>
			<point x="316" y="-12"/>
			<point x="440" y="110"/>
			<point x="440" y="304" type="curve" smooth="yes"/>
			<point x="440" y="436"/>
			<point x="358" y="510"/>
			<point x="249" y="510" type="curve" smooth="yes"/>
			<point x="178" y="510"/>
			<point x="116" y="486"/>
			<point x="68" y="452" type="curve"/>
			<point x="122" y="360" type="line"/>
			<point x="156" y="382"/>
			<point x="180" y="390"/>
			<point x="208" y="390" type="curve" smooth="yes"/>
			<point x="248" y="390"/>
			<point x="282" y="358"/>
			<point x="282" y="288" type="curve" smooth="yes"/>
			<point x="282" y="172"/>
			<point x="236" y="110"/>
			<point x="162" y="110" type="curve" smooth="yes"/>
			<point x="120" y="110"/>
			<point x="86" y="128"/>
			<point x="62" y="150" type="curve"/>
			<point x="-8" y="60" type="line"/>
			<point x="24" y="23"/>
			<point x="84" y="-12"/>
		</contour>
		<contour>
			<point x="118" y="202" type="line"/>
			<point x="363" y="202" type="line"/>
			<point x="383" y="306" type="line"/>
			<point x="140" y="306" type="line"/>
		</contour>
	</outline>
	<anchor name="aboveLC" x="250" y="522"/>
</glyph>
<glyph name="ya" format="2">
	<unicode hex="044F"/>
	<advance width="528"/>
	<outline>
		<contour>
			<point x="260" y="0" type="line"/>
			<point x="418" y="0" type="line"/>
			<point x="518" y="500" type="line"/>
			<point x="304" y="500" type="line" smooth="yes"/>
			<point x="176" y="500"/>
			<point x="64" y="447"/>
			<point x="64" y="300" type="curve" smooth="yes"/>
			<point x="64" y="199"/>
			<point x="162" y="160"/>
			<point x="248" y="160" type="curve"/>
			<point x="292" y="160" type="line"/>
		</contour>
		<contour>
			<point x="282" y="258" type="line" smooth="yes"/>
			<point x="240" y="258"/>
			<point x="218" y="278"/>
			<point x="218" y="308" type="curve" smooth="yes"/>
			<point x="218" y="352"/>
			<point x="242" y="378"/>
			<point x="298" y="378" type="curve" smooth="yes"/>
			<point x="336" y="378" type="line"/>
			<point x="310" y="258" type="line"/>
		</contour>
		<contour>
			<point x="168" y="268" type="line"/>
			<point x="112" y="194" type="line" smooth="yes"/>
			<point x="81" y="153"/>
			<point x="72" y="140"/>
			<point x="50" y="140" type="curve" smooth="yes"/>
			<point x="44" y="140"/>
			<point x="40" y="140"/>
			<point x="30" y="142" type="curve"/>
			<point x="-10" y="-2" type="line"/>
			<point x="6" y="-9"/>
			<point x="28" y="-12"/>
			<point x="42" y="-12" type="curve" smooth="yes"/>
			<point x="108" y="-12"/>
			<point x="142" y="14"/>
			<point x="198" y="92" type="curve" smooth="yes"/>
			<point x="302" y="236" type="line"/>
		</contour>
	</outline>
	<anchor name="aboveLC" x="300" y="522"/>
</glyph>
<glyph name="ieukran" format="2">
	<unicode hex="0454"/>
	<advance width="446"/>
	<outline>
		<contour>
			<point x="226" y="-12" type="curve" smooth="yes"/>
			<point x="306" y="-12"/>
			<point x="358" y="18"/>
			<point x="396" y="46" type="curve"/>
			<point x="336" y="136" type="line"/>
			<point x="317" y="122"/>
			<point x="295" y="110"/>
			<point x="262" y="110" type="curve" smooth="yes"/>
			<point x="208" y="110"/>
			<point x="176" y="146"/>
			<point x="176" y="198" type="curve" smooth="yes"/>
			<point x="176" y="302"/>
			<point x="228" y="390"/>
			<point x="316" y="390" type="curve" smooth="yes"/>
			<point x="343" y="390"/>
			<point x="362" y="382"/>
			<point x="380" y="364" type="curve"/>
			<point x="462" y="450" type="line"/>
			<point x="438" y="480"/>
			<point x="390" y="512"/>
			<point x="326" y="512" type="curve" smooth="yes"/>
			<point x="154" y="512"/>
			<point x="26" y="364"/>
			<point x="26" y="196" type="curve" smooth="yes"/>
			<point x="26" y="64"/>
			<point x="114" y="-12"/>
		</contour>
		<contour>
			<point x="120" y="202" type="line"/>
			<point x="328" y="202" type="line"/>
			<point x="348" y="306" type="line"/>
			<point x="140" y="306" type="line"/>
		</contour>
	</outline>
	<anchor name="aboveLC" x="290" y="522"/>
</glyph>
<glyph name="Izhitsa" format="2">
	<unicode hex="0474"/>
	<advance width="562"/>
	<outline>
		<contour>
			<point x="132" y="0" type="line"/>
			<point x="330" y="0" type="line"/>
			<point x="530" y="450" type="line" smooth="yes"/>
			<point x="549" y="492"/>
			<point x="570" y="514"/>
			<point x="596" y="514" type="curve" smooth="yes"/>
			<point x="608" y="514"/>
			<point x="620" y="510"/>
			<point x="626" y="508" type="curve"/>
			<point x="682" y="650" type="line"/>
			<point x="664" y="658"/>
			<point x="646" y="662"/>
			<point x="610" y="662" type="curve" smooth="yes"/>
			<point x="509" y="662"/>
			<point x="438" y="614"/>
			<point x="390" y="482" type="curve" smooth="yes"/>
			<point x="344" y="356" type="line"/>
			<point x="312" y="282"/>
			<point x="290" y="214"/>
			<point x="266" y="140" type="curve"/>
			<point x="262" y="140" type="line"/>
			<point x="262" y="214"/>
			<point x="260" y="282"/>
			<point x="257" y="356" type="curve" smooth="yes"/>
			<point x="246" y="650" type="line"/>
			<point x="78" y="650" type="line"/>
		</contour>
	</outline>
	<anchor name="aboveUC" x="360" y="672"/>
</glyph>
<glyph name="izhitsa" format="2">
	<unicode hex="0475"/>
	<advance width="525"/>
	<outline>
		<contour>
			<point x="120" y="0" type="line"/>
			<point x="308" y="0" type="line"/>
			<point x="444" y="300" type="line" smooth="yes"/>
			<point x="462" y="340"/>
			<point x="482" y="362"/>
			<point x="508" y="362" type="curve" smooth="yes"/>
			<point x="520" y="362"/>
			<point x="528" y="360"/>
			<point x="535" y="357" type="curve"/>
			<point x="579" y="504" type="line"/>
			<point x="566" y="508"/>
			<point x="546" y="512"/>
			<point x="512" y="512" type="curve" smooth="yes"/>
			<point x="422" y="512"/>
			<point x="368" y="452"/>
			<point x="318" y="330" type="curve" smooth="yes"/>
			<point x="294" y="272" type="line" smooth="yes"/>
			<point x="273" y="222"/>
			<point x="255" y="170"/>
			<point x="236" y="118" type="curve"/>
			<point x="232" y="118" type="line"/>
			<point x="232" y="171"/>
			<point x="232" y="222"/>
			<point x="230" y="272" type="curve" smooth="yes"/>
			<point x="220" y="500" type="line"/>
			<point x="60" y="500" type="line"/>
		</contour>
	</outline>
	<anchor name="aboveLC" x="300" y="522"/>
</glyph>
<glyph name="Gheup" format="2">
	<unicode hex="0490"/>
	<advance width="504"/>
	<outline>
		<contour>
			<point x="26" y="0" type="line"/>
			<point x="186" y="0" type="line"/>
			<point x="288" y="516" type="line"/>
			<point x="532" y="516" type="line"/>
			<point x="602" y="822" type="line"/>
			<point x="472" y="822" type="line"/>
			<point x="414" y="650" type="line"/>
			<point x="156" y="650" type="line"/>
		</contour>
	</outline>
</glyph>
<glyph name="Ustraightstroke" format="2">
	<unicode hex="04B0"/>
	<advance width="528"/>
	<outline>
		<contour>
			<point x="10" y="198" type="line"/>
			<point x="504" y="198" type="line"/>
			<point x="524" y="302" type="line"/>
			<point x="106" y="302" type="line"/>
			<point x="30" y="296" type="line"/>
		</contour>
		<component base="Ustraight"/>
	</outline>
	<anchor name="aboveUC" x="350" y="672"/>
</glyph>
<glyph name="T.sups" format="2">
	<unicode hex="1D40"/>
	<advance width="368"/>
	<outline>
		<contour>
			<point x="152" y="368" type="line"/>
			<point x="266" y="368" type="line"/>
			<point x="332" y="702" type="line"/>
			<point x="444" y="702" type="line"/>
			<point x="464" y="800" type="line"/>
			<point x="126" y="800" type="line"/>
			<point x="106" y="702" type="line"/>
			<point x="218" y="702" type="line"/>
		</contour>
	</outline>
</glyph>
<glyph name="eopen.sups" format="2">
	<unicode hex="1D4B"/>
	<advance width="316"/>
	<outline>
		<contour>
			<point x="204" y="360" type="curve" smooth="yes"/>
			<point x="256" y="360"/>
			<point x="292" y="372"/>
			<point x="334" y="396" type="curve"/>
			<point x="298" y="460" type="line"/>
			<point x="274" y="448"/>
			<point x="254" y="442"/>
			<point x="234" y="442" type="curve" smooth="yes"/>
			<point x="206" y="442"/>
			<point x="184" y="450"/>
			<point x="184" y="468" type="curve" smooth="yes"/>
			<point x="184" y="488"/>
			<point x="198" y="502"/>
			<point x="236" y="502" type="curve" smooth="yes"/>
			<point x="285" y="502" type="line"/>
			<point x="300" y="572" type="line"/>
			<point x="259" y="572" type="line" smooth="yes"/>
			<point x="240" y="572"/>
			<point x="228" y="579"/>
			<point x="228" y="594" type="curve" smooth="yes"/>
			<point x="228" y="612"/>
			<point x="246" y="626"/>
			<point x="272" y="626" type="curve" smooth="yes"/>
			<point x="292" y="626"/>
			<point x="310" y="622"/>
			<point x="330" y="612" type="curve"/>
			<point x="370" y="676" type="line"/>
			<point x="340" y="696"/>
			<point x="298" y="708"/>
			<point x="258" y="708" type="curve" smooth="yes"/>
			<point x="178" y="708"/>
			<point x="118" y="666"/>
			<point x="118" y="608" type="curve" smooth="yes"/>
			<point x="118" y="578"/>
			<point x="134" y="554"/>
			<point x="166" y="544" type="curve"/>
			<point x="166" y="540" type="line"/>
			<point x="118" y="530"/>
			<point x="76" y="501"/>
			<point x="76" y="448" type="curve" smooth="yes"/>
			<point x="76" y="386"/>
			<point x="140" y="360"/>
		</contour>
	</outline>
</glyph>
<glyph name="ginsular" format="2">
	<unicode hex="1D79"/>
	<advance width="512"/>
	<outline>
		<contour>
			<point x="163" y="-196" type="curve" smooth="yes"/>
			<point x="346" y="-196"/>
			<point x="450" y="-108"/>
			<point x="450" y="-6" type="curve" smooth="yes"/>
			<point x="450" y="64"/>
			<point x="412" y="102"/>
			<point x="312" y="144" type="curve" smooth="yes"/>
			<point x="240" y="174"/>
			<point x="210" y="198"/>
			<point x="210" y="252" type="curve" smooth="yes"/>
			<point x="210" y="308"/>
			<point x="260" y="376"/>
			<point x="368" y="376" type="curve" smooth="yes"/>
			<point x="502" y="376" type="line"/>
			<point x="526" y="500" type="line"/>
			<point x="158" y="500" type="line"/>
			<point x="84" y="494" type="line"/>
			<point x="60" y="376" type="line"/>
			<point x="154" y="376" type="line"/>
			<point x="154" y="372" type="line"/>
			<point x="88" y="332"/>
			<point x="46" y="276"/>
			<point x="46" y="210" type="curve" smooth="yes"/>
			<point x="46" y="160"/>
			<point x="66" y="122"/>
			<point x="103" y="86" type="curve"/>
			<point x="102" y="82" type="line"/>
			<point x="26" y="52"/>
			<point x="-20" y="0"/>
			<point x="-20" y="-58" type="curve" smooth="yes"/>
			<point x="-20" y="-157"/>
			<point x="62" y="-196"/>
		</contour>
		<contour>
			<point x="200" y="-90" type="curve" smooth="yes"/>
			<point x="146" y="-90"/>
			<point x="116" y="-70"/>
			<point x="116" y="-36" type="curve" smooth="yes"/>
			<point x="116" y="-6"/>
			<point x="136" y="22"/>
			<point x="173" y="42" type="curve"/>
			<point x="230" y="18"/>
			<point x="292" y="3"/>
			<point x="292" y="-42" type="curve" smooth="yes"/>
			<point x="292" y="-65"/>
			<point x="260" y="-90"/>
		</contour>
	</outline>
	<anchor name="aboveLC" x="310" y="522"/>
	<anchor name="belowLC" x="200" y="-182"/>
</glyph>
<glyph name="Germandbls" format="2">
	<unicode hex="1E9E"/>
	<advance width="686"/>
	<outline>
		<contour>
			<point x="434" y="-12" type="curve" smooth="yes"/>
			<point x="558" y="-12"/>
			<point x="644" y="76"/>
			<point x="644" y="188" type="curve" smooth="yes"/>
			<point x="644" y="268"/>
			<point x="590" y="318"/>
			<point x="524" y="352" type="curve"/>
			<point x="646" y="462" type="line"/>
			<point x="639" y="607"/>
			<point x="528" y="672"/>
			<point x="402" y="672" type="curve" smooth="yes"/>
			<point x="224" y="672"/>
			<point x="138" y="561"/>
			<point x="112" y="428" type="curve" smooth="yes"/>
			<point x="26" y="0" type="line"/>
			<point x="186" y="0" type="line"/>
			<point x="264" y="398" type="line" smooth="yes"/>
			<point x="283" y="488"/>
			<point x="328" y="544"/>
			<point x="392" y="544" type="curve" smooth="yes"/>
			<point x="438" y="544"/>
			<point x="476" y="522"/>
			<point x="490" y="480" type="curve"/>
			<point x="370" y="366" type="line"/>
			<point x="362" y="274" type="line"/>
			<point x="442" y="252"/>
			<point x="480" y="214"/>
			<point x="480" y="176" type="curve" smooth="yes"/>
			<point x="480" y="140"/>
			<point x="450" y="116"/>
			<point x="418" y="116" type="curve" smooth="yes"/>
			<point x="384" y="116"/>
			<point x="352" y="134"/>
			<point x="334" y="154" type="curve"/>
			<point x="258" y="62" type="line"/>
			<point x="308" y="4"/>
			<point x="372" y="-12"/>
		</contour>
	</outline>
</glyph>
<glyph name="emdash" format="2">
	<unicode hex="2014"/>
	<advance width="772"/>
	<outline>
		<contour>
			<point x="34" y="202" type="line"/>
			<point x="718" y="202" type="line"/>
			<point x="738" y="304" type="line"/>
			<point x="54" y="304" type="line"/>
		</contour>
	</outline>
</glyph>
<glyph name="lira" format="2">
	<unicode hex="20A4"/>
	<advance width="520"/>
	<outline>
		<contour>
			<point x="6" y="0" type="line"/>
			<point x="452" y="0" type="line"/>
			<point x="476" y="134" type="line"/>
			<point x="250" y="134" type="line"/>
			<point x="250" y="138" type="line"/>
			<point x="290" y="186"/>
			<point x="306" y="230"/>
			<point x="306" y="296" type="curve" smooth="yes"/>
			<point x="306" y="323"/>
			<point x="298" y="357"/>
			<point x="298" y="384" type="curve" smooth="yes"/>
			<point x="298" y="480"/>
			<point x="340" y="518"/>
			<point x="388" y="518" type="curve" smooth="yes"/>
			<point x="418" y="518"/>
			<point x="444" y="504"/>
			<point x="466" y="476" type="curve"/>
			<point x="556" y="560" type="line"/>
			<point x="520" y="614"/>
			<point x="462" y="646"/>
			<point x="396" y="646" type="curve" smooth="yes"/>
			<point x="260" y="646"/>
			<point x="150" y="550"/>
			<point x="150" y="408" type="curve" smooth="yes"/>
			<point x="150" y="369"/>
			<point x="162" y="317"/>
			<point x="162" y="278" type="curve" smooth="yes"/>
			<point x="162" y="194"/>
			<point x="108" y="132"/>
			<point x="26" y="98" type="curve"/>
		</contour>
		<contour>
			<point x="78" y="342" type="line"/>
			<point x="432" y="342" type="line"/>
			<point x="448" y="422" type="line"/>
			<point x="166" y="422" type="line"/>
			<point x="94" y="416" type="line"/>
		</contour>
		<contour>
			<point x="52" y="214" type="line"/>
			<point x="404" y="214" type="line"/>
			<point x="420" y="294" type="line"/>
			<point x="140" y="294" type="line"/>
			<point x="68" y="288" type="line"/>
		</contour>
	</outline>
</glyph>
<glyph name="guarani" format="2">
	<unicode hex="20B2"/>
	<advance width="520"/>
	<outline>
		<contour>
			<point x="256" y="-12" type="curve" smooth="yes"/>
			<point x="334" y="-12"/>
			<point x="400" y="26"/>
			<point x="448" y="66" type="curve"/>
			<point x="508" y="368" type="line"/>
			<point x="310" y="368" type="line"/>
			<point x="284" y="238" type="line"/>
			<point x="342" y="238" type="line"/>
			<point x="318" y="124" type="line"/>
			<point x="309" y="117"/>
			<point x="294" y="116"/>
			<point x="284" y="116" type="curve" smooth="yes"/>
			<point x="227" y="116"/>
			<point x="196" y="166"/>
			<point x="196" y="252" type="curve" smooth="yes"/>
			<point x="196" y="393"/>
			<point x="248" y="518"/>
			<point x="346" y="518" type="curve" smooth="yes"/>
			<point x="376" y="518"/>
			<point x="406" y="502"/>
			<point x="420" y="472" type="curve"/>
			<point x="514" y="550" type="line"/>
			<point x="486" y="608"/>
			<point x="422" y="646"/>
			<point x="358" y="646" type="curve" smooth="yes"/>
			<point x="184" y="646"/>
			<point x="36" y="484"/>
			<point x="36" y="242" type="curve" smooth="yes"/>
			<point x="36" y="78"/>
			<point x="130" y="-12"/>
		</contour>
		<contour>
			<point x="176" y="-110" type="line"/>
			<point x="280" y="-110" type="line"/>
			<point x="314" y="54" type="line"/>
			<point x="208" y="54" type="line"/>
		</contour>
		<contour>
			<point x="300" y="596" type="line"/>
			<point x="404" y="596" type="line"/>
			<point x="432" y="744" type="line"/>
			<point x="328" y="744" type="line"/>
		</contour>
	</outline>
</glyph>
<glyph name="tenge" format="2">
	<unicode hex="20B8"/>
	<advance width="520"/>
	<outline>
		<contour>
			<point x="124" y="0" type="line"/>
			<point x="282" y="0" type="line"/>
			<point x="366" y="424" type="line"/>
			<point x="520" y="424" type="line"/>
			<point x="536" y="504" type="line"/>
			<point x="150" y="504" type="line"/>
			<point x="72" y="498" type="line"/>
			<point x="56" y="424" type="line"/>
			<point x="208" y="424" type="line"/>
		</contour>
		<contour>
			<point x="82" y="554" type="line"/>
			<point x="544" y="554" type="line"/>
			<point x="560" y="634" type="line"/>
			<point x="98" y="634" type="line"/>
		</contour>
	</outline>
</glyph>
<glyph name="servicemark" format="2">
	<unicode hex="2120"/>
	<advance width="658"/>
	<outline>
		<contour>
			<point x="152" y="348" type="curve" smooth="yes"/>
			<point x="230" y="348"/>
			<point x="290" y="406"/>
			<point x="290" y="464" type="curve" smooth="yes"/>
			<point x="290" y="506"/>
			<point x="268" y="532"/>
			<point x="240" y="546" type="curve" smooth="yes"/>
			<point x="208" y="562" type="line" smooth="yes"/>
			<point x="190" y="570"/>
			<point x="178" y="578"/>
			<point x="178" y="588" type="curve" smooth="yes"/>
			<point x="178" y="598"/>
			<point x="188" y="610"/>
			<point x="210" y="610" type="curve" smooth="yes"/>
			<point x="228" y="610"/>
			<point x="248" y="596"/>
			<point x="264" y="580" type="curve"/>
			<point x="322" y="640" type="line"/>
			<point x="296" y="664"/>
			<point x="264" y="686"/>
			<point x="218" y="686" type="curve" smooth="yes"/>
			<point x="142" y="686"/>
			<point x="84" y="635"/>
			<point x="84" y="574" type="curve" smooth="yes"/>
			<point x="84" y="534"/>
			<point x="102" y="506"/>
			<point x="128" y="492" type="curve" smooth="yes"/>
			<point x="164" y="474" type="line" smooth="yes"/>
			<point x="180" y="466"/>
			<point x="192" y="458"/>
			<point x="192" y="446" type="curve" smooth="yes"/>
			<point x="192" y="434"/>
			<point x="182" y="426"/>
			<point x="158" y="426" type="curve" smooth="yes"/>
			<point x="138" y="426"/>
			<point x="116" y="438"/>
			<point x="96" y="460" type="curve"/>
			<point x="30" y="406" type="line"/>
			<point x="68" y="360"/>
			<point x="104" y="348"/>
		</contour>
		<contour>
			<point x="318" y="360" type="line"/>
			<point x="414" y="360" type="line"/>
			<point x="432" y="448" type="line"/>
			<point x="436" y="576" type="line"/>
			<point x="440" y="576" type="line"/>
			<point x="472" y="406" type="line"/>
			<point x="520" y="406" type="line"/>
			<point x="618" y="576" type="line"/>
			<point x="622" y="576" type="line"/>
			<point x="578" y="448" type="line"/>
			<point x="560" y="360" type="line"/>
			<point x="660" y="360" type="line"/>
			<point x="720" y="676" type="line"/>
			<point x="604" y="676" type="line"/>
			<point x="550" y="590" type="line"/>
			<point x="522" y="522" type="line"/>
			<point x="518" y="522" type="line"/>
			<point x="512" y="590" type="line"/>
			<point x="492" y="676" type="line"/>
			<point x="378" y="676" type="line"/>
		</contour>
	</outline>
</glyph>
<glyph name="Omega" format="2">
	<unicode hex="2126"/>
	<unicode hex="03A9"/>
	<advance width="712"/>
	<outline>
		<contour>
			<point x="-8" y="0" type="line"/>
			<point x="268" y="0" type="line"/>
			<point x="288" y="104" type="line"/>
			<point x="250" y="150"/>
			<point x="228" y="222"/>
			<point x="228" y="282" type="curve" smooth="yes"/>
			<point x="228" y="428"/>
			<point x="302" y="524"/>
			<point x="402" y="524" type="curve" smooth="yes"/>
			<point x="472" y="524"/>
			<point x="514" y="474"/>
			<point x="514" y="396" type="curve" smooth="yes"/>
			<point x="514" y="290"/>
			<point x="466" y="186"/>
			<point x="364" y="104" type="curve"/>
			<point x="344" y="0" type="line"/>
			<point x="622" y="0" type="line"/>
			<point x="646" y="128" type="line"/>
			<point x="542" y="128" type="line"/>
			<point x="542" y="132" type="line"/>
			<point x="598" y="182"/>
			<point x="682" y="280"/>
			<point x="682" y="422" type="curve" smooth="yes"/>
			<point x="682" y="572"/>
			<point x="584" y="662"/>
			<point x="428" y="662" type="curve" smooth="yes"/>
			<point x="224" y="662"/>
			<point x="70" y="518"/>
			<point x="70" y="308" type="curve" smooth="yes"/>
			<point x="70" y="240"/>
			<point x="98" y="164"/>
			<point x="120" y="132" type="curve"/>
			<point x="120" y="128" type="line"/>
			<point x="16" y="128" type="line"/>
		</contour>
	</outline>
	<anchor name="belowLC" x="320" y="-22"/>
</glyph>
<glyph name="integral" format="2">
	<unicode hex="222B"/>
	<advance width="394"/>
	<outline>
		<contour>
			<point x="24" y="-158" type="curve" smooth="yes"/>
			<point x="180" y="-158"/>
			<point x="233" y="-52"/>
			<point x="260" y="92" type="curve" smooth="yes"/>
			<point x="292" y="260"/>
			<point x="284" y="390"/>
			<point x="314" y="544" type="curve" smooth="yes"/>
			<point x="332" y="636"/>
			<point x="352" y="672"/>
			<point x="400" y="672" type="curve" smooth="yes"/>
			<point x="418" y="672"/>
			<point x="432" y="670"/>
			<point x="442" y="668" type="curve"/>
			<point x="472" y="784" type="line"/>
			<point x="458" y="788"/>
			<point x="432" y="792"/>
			<point x="406" y="792" type="curve" smooth="yes"/>
			<point x="250" y="792"/>
			<point x="197" y="684"/>
			<point x="170" y="540" type="curve" smooth="yes"/>
			<point x="138" y="372"/>
			<point x="148" y="244"/>
			<point x="116" y="88" type="curve" smooth="yes"/>
			<point x="98" y="-6"/>
			<point x="80" y="-40"/>
			<point x="32" y="-40" type="curve" smooth="yes"/>
			<point x="18" y="-40"/>
			<point x="6" y="-38"/>
			<point x="-2" y="-36" type="curve"/>
			<point x="-34" y="-150" type="line"/>
			<point x="-20" y="-156"/>
			<point x="2" y="-158"/>
		</contour>
	</outline>
</glyph>
<glyph name="integralbt" format="2">
	<unicode hex="2321"/>
	<advance width="394"/>
	<outline>
		<contour>
			<point x="89" y="-320" type="curve" smooth="yes"/>
			<point x="255" y="-320"/>
			<point x="288" y="-212"/>
			<point x="288" y="-70" type="curve" smooth="yes"/>
			<point x="288" y="680" type="line"/>
			<point x="144" y="680" type="line"/>
			<point x="144" y="-74" type="line" smooth="yes"/>
			<point x="144" y="-166"/>
			<point x="132" y="-200"/>
			<point x="81" y="-200" type="curve" smooth="yes"/>
			<point x="67" y="-200"/>
			<point x="55" y="-199"/>
			<point x="45" y="-196" type="curve"/>
			<point x="30" y="-312" type="line"/>
			<point x="42" y="-315"/>
			<point x="65" y="-320"/>
		</contour>
	</outline>
</glyph>
<glyph name="trianglesmallrightblack" format="2">
	<unicode hex="25B8"/>
	<advance width="344"/>
	<outline>
		<contour>
			<point x="38" y="100" type="line"/>
			<point x="42" y="100" type="line"/>
			<point x="330" y="260" type="line"/>
			<point x="330" y="264" type="line"/>
			<point x="42" y="424" type="line"/>
			<point x="38" y="424" type="line"/>
		</contour>
	</outline>
</glyph>
<glyph name="lbardbl" format="2">
	<unicode hex="2C61"/>
	<advance width="366"/>
	<outline>
		<contour>
			<point x="42" y="394" type="line"/>
			<point x="372" y="394" type="line"/>
			<point x="388" y="474" type="line"/>
			<point x="146" y="474" type="line"/>
			<point x="58" y="468" type="line"/>
		</contour>
		<contour>
			<point x="16" y="266" type="line"/>
			<point x="346" y="266" type="line"/>
			<point x="362" y="346" type="line"/>
			<point x="120" y="346" type="line"/>
			<point x="32" y="340" type="line"/>
		</contour>
		<component base="l" xOffset="40"/>
	</outline>
	<anchor name="aboveUC" x="270" y="722"/>
	<anchor name="belowLC" x="160" y="-22"/>
	<guideline x="201" y="370" angle="0" identifier="8MVlfxpg0Z"/>
</glyph>
<glyph name="Lmiddletilde" format="2">
	<unicode hex="2C62"/>
	<advance width="544"/>
	<outline>
		<contour>
			<point x="348" y="274" type="curve" smooth="yes"/>
			<point x="406" y="274"/>
			<point x="450" y="310"/>
			<point x="470" y="392" type="curve"/>
			<point x="386" y="414" type="line"/>
			<point x="376" y="382"/>
			<point x="364" y="372"/>
			<point x="346" y="372" type="curve" smooth="yes"/>
			<point x="287" y="372"/>
			<point x="196" y="428"/>
			<point x="106" y="428" type="curve" smooth="yes"/>
			<point x="48" y="428"/>
			<point x="4" y="392"/>
			<point x="-16" y="310" type="curve"/>
			<point x="68" y="288" type="line"/>
			<point x="78" y="320"/>
			<point x="90" y="330"/>
			<point x="108" y="330" type="curve" smooth="yes"/>
			<point x="167" y="330"/>
			<point x="258" y="274"/>
		</contour>
		<component base="L" xOffset="30"/>
	</outline>
	<anchor name="aboveUC" x="270" y="672"/>
	<anchor name="belowLC" x="260" y="-22"/>
</glyph>
<glyph name="Ettironian" format="2">
	<unicode hex="2E52"/>
	<advance width="490"/>
	<outline>
		<contour>
			<point x="66" y="0" type="line"/>
			<point x="250" y="0" type="line"/>
			<point x="502" y="554" type="line"/>
			<point x="522" y="650" type="line"/>
			<point x="106" y="650" type="line"/>
			<point x="80" y="516" type="line"/>
			<point x="344" y="516" type="line"/>
		</contour>
	</outline>
</glyph>
<glyph name="lturned" format="2">
	<unicode hex="A781"/>
	<advance width="286"/>
	<outline>
		<contour>
			<point x="-28" y="-176" type="line"/>
			<point x="132" y="-176" type="line"/>
			<point x="235" y="334" type="line" smooth="yes"/>
			<point x="241" y="362"/>
			<point x="243" y="382"/>
			<point x="243" y="402" type="curve" smooth="yes"/>
			<point x="243" y="470"/>
			<point x="211" y="512"/>
			<point x="119" y="512" type="curve" smooth="yes"/>
			<point x="89" y="512"/>
			<point x="61" y="504"/>
			<point x="39" y="496" type="curve"/>
			<point x="45" y="382" type="line"/>
			<point x="53" y="384"/>
			<point x="57" y="384"/>
			<point x="61" y="384" type="curve" smooth="yes"/>
			<point x="71" y="384"/>
			<point x="79" y="378"/>
			<point x="79" y="364" type="curve" smooth="yes"/>
			<point x="79" y="356"/>
			<point x="79" y="352"/>
			<point x="77" y="340" type="curve" smooth="yes"/>
		</contour>
	</outline>
	<anchor name="aboveLC" x="170" y="522"/>
	<anchor name="belowLC" x="60" y="-182"/>
</glyph>
<glyph name="dzretroflex" format="2">
	<unicode hex="AB66"/>
	<advance width="866"/>
	<outline>
		<contour>
			<point x="158" y="-12" type="curve" smooth="yes"/>
			<point x="203" y="-12"/>
			<point x="255" y="17"/>
			<point x="298" y="62" type="curve"/>
			<point x="300" y="62" type="line"/>
			<point x="300" y="0" type="line"/>
			<point x="430" y="0" type="line"/>
			<point x="570" y="696" type="line"/>
			<point x="410" y="696" type="line"/>
			<point x="382" y="550" type="line"/>
			<point x="372" y="456" type="line"/>
			<point x="370" y="456" type="line"/>
			<point x="352" y="489"/>
			<point x="322" y="512"/>
			<point x="284" y="512" type="curve" smooth="yes"/>
			<point x="151" y="512"/>
			<point x="28" y="358"/>
			<point x="28" y="162" type="curve" smooth="yes"/>
			<point x="28" y="50"/>
			<point x="77" y="-12"/>
		</contour>
		<contour>
			<point x="230" y="118" type="curve" smooth="yes"/>
			<point x="208" y="118"/>
			<point x="194" y="137"/>
			<point x="194" y="182" type="curve" smooth="yes"/>
			<point x="194" y="300"/>
			<point x="243" y="382"/>
			<point x="296" y="382" type="curve" smooth="yes"/>
			<point x="311" y="382"/>
			<point x="328" y="369"/>
			<point x="340" y="344" type="curve"/>
			<point x="308" y="184" type="line"/>
			<point x="281" y="131"/>
			<point x="253" y="118"/>
		</contour>
		<contour>
			<point x="766" y="-188" type="curve" smooth="yes"/>
			<point x="808" y="-188"/>
			<point x="842" y="-178"/>
			<point x="866" y="-168" type="curve"/>
			<point x="840" y="-56" type="line"/>
			<point x="828" y="-60"/>
			<point x="823" y="-60"/>
			<point x="814" y="-60" type="curve" smooth="yes"/>
			<point x="799" y="-60"/>
			<point x="784" y="-54"/>
			<point x="784" y="-35" type="curve" smooth="yes"/>
			<point x="784" y="-24"/>
			<point x="784" y="-16"/>
			<point x="814" y="124" type="curve"/>
			<point x="678" y="124" type="line"/>
			<point x="864" y="408" type="line"/>
			<point x="882" y="500" type="line"/>
			<point x="518" y="500" type="line"/>
			<point x="494" y="376" type="line"/>
			<point x="684" y="376" type="line"/>
			<point x="498" y="90" type="line"/>
			<point x="480" y="0" type="line"/>
			<point x="648" y="0" type="line"/>
			<point x="640" y="-38"/>
			<point x="638" y="-58"/>
			<point x="638" y="-78" type="curve" smooth="yes"/>
			<point x="638" y="-144"/>
			<point x="678" y="-188"/>
		</contour>
	</outline>
	<anchor name="aboveUC" x="490" y="722"/>
	<anchor name="belowLC" x="470" y="-22"/>
</glyph>
<glyph name="marcaregistrada" format="2">
	<unicode hex="1F16C"/>
	<advance width="708"/>
	<outline>
		<contour>
			<point x="50" y="360" type="line"/>
			<point x="146" y="360" type="line"/>
			<point x="164" y="448" type="line"/>
			<point x="168" y="576" type="line"/>
			<point x="172" y="576" type="line"/>
			<point x="204" y="406" type="line"/>
			<point x="252" y="406" type="line"/>
			<point x="350" y="576" type="line"/>
			<point x="354" y="576" type="line"/>
			<point x="310" y="448" type="line"/>
			<point x="292" y="360" type="line"/>
			<point x="392" y="360" type="line"/>
			<point x="452" y="676" type="line"/>
			<point x="336" y="676" type="line"/>
			<point x="282" y="590" type="line"/>
			<point x="254" y="522" type="line"/>
			<point x="250" y="522" type="line"/>
			<point x="244" y="590" type="line"/>
			<point x="224" y="676" type="line"/>
			<point x="110" y="676" type="line"/>
		</contour>
		<contour>
			<point x="450" y="360" type="line"/>
			<point x="546" y="360" type="line"/>
			<point x="570" y="466" type="line"/>
			<point x="610" y="466" type="line" smooth="yes"/>
			<point x="696" y="466"/>
			<point x="758" y="516"/>
			<point x="758" y="574" type="curve" smooth="yes"/>
			<point x="758" y="654"/>
			<point x="709" y="676"/>
			<point x="622" y="676" type="curve" smooth="yes"/>
			<point x="514" y="676" type="line"/>
		</contour>
		<contour>
			<point x="579" y="522" type="line"/>
			<point x="596" y="604" type="line"/>
			<point x="612" y="604" type="line" smooth="yes"/>
			<point x="642" y="604"/>
			<point x="652" y="592"/>
			<point x="652" y="570" type="curve" smooth="yes"/>
			<point x="652" y="545"/>
			<point x="632" y="522"/>
			<point x="592" y="522" type="curve" smooth="yes"/>
		</contour>
		<contour>
			<point x="620" y="360" type="line"/>
			<point x="720" y="360" type="line"/>
			<point x="657" y="546" type="line"/>
			<point x="588" y="487" type="line"/>
		</contour>
	</outline>
</glyph>
<glyph name="THEIR" format="2">
	<advance width="1252"/>
	<outline>
		<contour>
			<point x="883" y="286" type="line"/>
			<point x="999" y="222"/>
			<point x="1059" y="212"/>
			<point x="1126" y="212" type="curve" smooth="yes"/>
			<point x="1235" y="212"/>
			<point x="1332" y="294"/>
			<point x="1359" y="428" type="curve" smooth="yes"/>
			<point x="1368" y="474"/>
			<point x="1363" y="508"/>
			<point x="1347" y="542" type="curve"/>
			<point x="1210" y="488" type="line"/>
			<point x="1216" y="470"/>
			<point x="1217" y="456"/>
			<point x="1212" y="432" type="curve" smooth="yes"/>
			<point x="1200" y="374"/>
			<point x="1161" y="332"/>
			<point x="1100" y="332" type="curve" smooth="yes"/>
			<point x="1038" y="332"/>
			<point x="1008" y="343"/>
			<point x="942" y="368" type="curve"/>
		</contour>
		<component base="THEY"/>
	</outline>
</glyph>
<glyph name="They" format="2">
	<advance width="1060"/>
	<outline>
		<contour>
			<point x="405" y="-12" type="curve" smooth="yes"/>
			<point x="548" y="-12"/>
			<point x="628" y="78"/>
			<point x="660" y="240" type="curve" smooth="yes"/>
			<point x="696" y="420"/>
			<point x="683" y="546"/>
			<point x="689" y="650" type="curve"/>
			<point x="665" y="656"/>
			<point x="626" y="662"/>
			<point x="593" y="662" type="curve" smooth="yes"/>
			<point x="311" y="662"/>
			<point x="137" y="476"/>
			<point x="85" y="212" type="curve" smooth="yes"/>
			<point x="65" y="116"/>
			<point x="78" y="28"/>
			<point x="94" y="-8" type="curve"/>
			<point x="244" y="40" type="line"/>
			<point x="236" y="94"/>
			<point x="236" y="126"/>
			<point x="252" y="202" type="curve" smooth="yes"/>
			<point x="289" y="388"/>
			<point x="425" y="522"/>
			<point x="519" y="522" type="curve"/>
			<point x="518" y="458"/>
			<point x="519" y="376"/>
			<point x="483" y="198" type="curve" smooth="yes"/>
			<point x="470" y="135"/>
			<point x="457" y="118"/>
			<point x="429" y="118" type="curve" smooth="yes"/>
			<point x="413" y="118"/>
			<point x="405" y="126"/>
			<point x="409" y="142" type="curve" smooth="yes"/>
			<point x="414" y="168"/>
			<point x="431" y="199"/>
			<point x="643" y="200" type="curve" smooth="yes"/>
			<point x="958" y="202"/>
			<point x="1048" y="276"/>
			<point x="1068" y="378" type="curve" smooth="yes"/>
			<point x="1084" y="456"/>
			<point x="1045" y="512"/>
			<point x="959" y="512" type="curve" smooth="yes"/>
			<point x="837" y="512"/>
			<point x="711" y="415"/>
			<point x="674" y="230" type="curve" smooth="yes"/>
			<point x="640" y="63"/>
			<point x="731" y="-12"/>
			<point x="865" y="-12" type="curve" smooth="yes"/>
			<point x="926" y="-12"/>
			<point x="982" y="14"/>
			<point x="1018" y="38" type="curve"/>
			<point x="982" y="140" type="line"/>
			<point x="953" y="121"/>
			<point x="934" y="118"/>
			<point x="907" y="118" type="curve" smooth="yes"/>
			<point x="857" y="118"/>
			<point x="828" y="157"/>
			<point x="847" y="252" type="curve" smooth="yes"/>
			<point x="866" y="345"/>
			<point x="899" y="382"/>
			<point x="923" y="382" type="curve" smooth="yes"/>
			<point x="942" y="382"/>
			<point x="948" y="372"/>
			<point x="945" y="358" type="curve" smooth="yes"/>
			<point x="940" y="334"/>
			<point x="910" y="314"/>
			<point x="707" y="310" type="curve" smooth="yes"/>
			<point x="385" y="304"/>
			<point x="306" y="224"/>
			<point x="286" y="124" type="curve" smooth="yes"/>
			<point x="270" y="42"/>
			<point x="320" y="-12"/>
		</contour>
	</outline>
</glyph>
<glyph name="Zhedescender.a" format="2">
	<advance width="900"/>
	<outline>
		<contour>
			<point x="650" y="-188" type="line"/>
			<point x="782" y="-188" type="line"/>
			<point x="842" y="22" type="line"/>
			<point x="864" y="134" type="line"/>
			<point x="686" y="134" type="line"/>
			<point x="660" y="0" type="line"/>
			<point x="684" y="0" type="line"/>
		</contour>
		<component base="Zhe.a"/>
	</outline>
</glyph>
<glyph name="asper.cap" format="2">
	<advance width="180"/>
	<outline>
		<contour>
			<point x="180" y="386" type="curve"/>
			<point x="202" y="448" type="line"/>
			<point x="178" y="454"/>
			<point x="158" y="470"/>
			<point x="158" y="502" type="curve" smooth="yes"/>
			<point x="158" y="534"/>
			<point x="178" y="575"/>
			<point x="258" y="582" type="curve"/>
			<point x="264" y="666" type="line"/>
			<point x="88" y="662"/>
			<point x="44" y="570"/>
			<point x="44" y="500" type="curve" smooth="yes"/>
			<point x="44" y="426"/>
			<point x="102" y="390"/>
		</contour>
	</outline>
</glyph>
<glyph name="at.cap" format="2">
	<advance width="846"/>
	<outline>
		<contour>
			<point x="368" y="-36" type="curve" smooth="yes"/>
			<point x="432" y="-36"/>
			<point x="488" y="-20"/>
			<point x="542" y="8" type="curve"/>
			<point x="504" y="82" type="line"/>
			<point x="470" y="62"/>
			<point x="424" y="54"/>
			<point x="390" y="54" type="curve" smooth="yes"/>
			<point x="272" y="54"/>
			<point x="186" y="129"/>
			<point x="186" y="277" type="curve" smooth="yes"/>
			<point x="186" y="468"/>
			<point x="354" y="616"/>
			<point x="497" y="616" type="curve" smooth="yes"/>
			<point x="660" y="616"/>
			<point x="708" y="525"/>
			<point x="708" y="427" type="curve" smooth="yes"/>
			<point x="708" y="303"/>
			<point x="654" y="234"/>
			<point x="615" y="234" type="curve" smooth="yes"/>
			<point x="581" y="234"/>
			<point x="571" y="258"/>
			<point x="584" y="312" type="curve" smooth="yes"/>
			<point x="631" y="502" type="line"/>
			<point x="538" y="502" type="line"/>
			<point x="520" y="462" type="line"/>
			<point x="516" y="462" type="line"/>
			<point x="506" y="496"/>
			<point x="486" y="510"/>
			<point x="454" y="510" type="curve" smooth="yes"/>
			<point x="351" y="510"/>
			<point x="266" y="397"/>
			<point x="266" y="286" type="curve" smooth="yes"/>
			<point x="266" y="203"/>
			<point x="312" y="146"/>
			<point x="380" y="146" type="curve" smooth="yes"/>
			<point x="415" y="146"/>
			<point x="462" y="172"/>
			<point x="485" y="210" type="curve"/>
			<point x="489" y="210" type="line"/>
			<point x="499" y="160"/>
			<point x="538" y="136"/>
			<point x="581" y="136" type="curve" smooth="yes"/>
			<point x="704" y="136"/>
			<point x="805" y="240"/>
			<point x="805" y="434" type="curve" smooth="yes"/>
			<point x="805" y="580"/>
			<point x="712" y="704"/>
			<point x="507" y="704" type="curve" smooth="yes"/>
			<point x="296" y="704"/>
			<point x="82" y="524"/>
			<point x="82" y="257" type="curve" smooth="yes"/>
			<point x="82" y="71"/>
			<point x="206" y="-36"/>
		</contour>
		<contour>
			<point x="418" y="244" type="curve" smooth="yes"/>
			<point x="394" y="244"/>
			<point x="383" y="264"/>
			<point x="383" y="296" type="curve" smooth="yes"/>
			<point x="383" y="342"/>
			<point x="412" y="410"/>
			<point x="457" y="410" type="curve" smooth="yes"/>
			<point x="472" y="410"/>
			<point x="482" y="402"/>
			<point x="487" y="384" type="curve"/>
			<point x="466" y="288" type="line"/>
			<point x="447" y="256"/>
			<point x="433" y="244"/>
		</contour>
	</outline>
</glyph>
<glyph name="caroncomma.cap" format="2">
	<outline>
		<contour>
			<point x="60" y="700" type="line"/>
			<point x="210" y="700" type="line"/>
			<point x="332" y="830" type="line"/>
			<point x="226" y="830" type="line"/>
			<point x="144" y="772" type="line"/>
			<point x="140" y="772" type="line"/>
			<point x="86" y="830" type="line"/>
			<point x="-22" y="830" type="line"/>
		</contour>
		<component base="commaabovecmb.cap" xScale="0.9" yScale="0.9" xOffset="40" yOffset="180"/>
	</outline>
	<anchor name="_aboveUC" x="130" y="672"/>
</glyph>
<glyph name="circumflexacute.cap" format="2">
	<outline>
		<contour>
			<point x="-40" y="700" type="line"/>
			<point x="77" y="700" type="line"/>
			<point x="152" y="760" type="line"/>
			<point x="156" y="760" type="line"/>
			<point x="203" y="700" type="line"/>
			<point x="320" y="700" type="line"/>
			<point x="228" y="840" type="line"/>
			<point x="93" y="840" type="line"/>
		</contour>
		<contour>
			<point x="270" y="790" type="line"/>
			<point x="350" y="790" type="line"/>
			<point x="480" y="902" type="line"/>
			<point x="470" y="920" type="line"/>
			<point x="350" y="920" type="line"/>
		</contour>
	</outline>
	<anchor name="_aboveUC" x="130" y="672"/>
</glyph>
<glyph name="circumflexgrave.cap" format="2">
	<outline>
		<contour>
			<point x="-40" y="700" type="line"/>
			<point x="77" y="700" type="line"/>
			<point x="152" y="760" type="line"/>
			<point x="156" y="760" type="line"/>
			<point x="203" y="700" type="line"/>
			<point x="320" y="700" type="line"/>
			<point x="228" y="840" type="line"/>
			<point x="93" y="840" type="line"/>
		</contour>
		<contour>
			<point x="-60" y="790" type="line"/>
			<point x="20" y="790" type="line"/>
			<point x="-10" y="920" type="line"/>
			<point x="-130" y="920" type="line"/>
			<point x="-140" y="902" type="line"/>
		</contour>
	</outline>
	<anchor name="_aboveUC" x="130" y="672"/>
</glyph>
<glyph name="circumflexmacron.cap" format="2">
	<outline>
		<contour>
			<point x="-40" y="700" type="line"/>
			<point x="77" y="700" type="line"/>
			<point x="152" y="760" type="line"/>
			<point x="156" y="760" type="line"/>
			<point x="203" y="700" type="line"/>
			<point x="320" y="700" type="line"/>
			<point x="228" y="840" type="line"/>
			<point x="93" y="840" type="line"/>
		</contour>
		<contour>
			<point x="24" y="882" type="line"/>
			<point x="324" y="882" type="line"/>
			<point x="340" y="956" type="line"/>
			<point x="38" y="956" type="line"/>
		</contour>
	</outline>
	<anchor name="_aboveUC" x="130" y="672"/>
</glyph>
<glyph name="commabelowcmb.a" format="2">
	<outline>
		<contour>
			<point x="153" y="566" type="curve"/>
			<point x="197" y="626" type="line"/>
			<point x="154" y="626"/>
			<point x="143" y="642"/>
			<point x="143" y="654" type="curve" smooth="yes"/>
			<point x="143" y="676"/>
			<point x="171" y="690"/>
			<point x="248" y="694" type="curve"/>
			<point x="251" y="760" type="line"/>
			<point x="118" y="756"/>
			<point x="18" y="722"/>
			<point x="18" y="640" type="curve" smooth="yes"/>
			<point x="18" y="601"/>
			<point x="42" y="570"/>
		</contour>
	</outline>
	<anchor name="_aboveLC" x="100" y="522"/>
</glyph>
<glyph name="eogonek.supd" format="2">
	<advance width="336"/>
	<outline>
		<contour>
			<point x="203" y="212" type="curve" smooth="yes"/>
			<point x="231" y="212"/>
			<point x="255" y="226"/>
			<point x="273" y="239" type="curve"/>
			<point x="255" y="286" type="line"/>
			<point x="245" y="281"/>
			<point x="240" y="278"/>
			<point x="232" y="278" type="curve" smooth="yes"/>
			<point x="219" y="278"/>
			<point x="207" y="287"/>
			<point x="207" y="305" type="curve" smooth="yes"/>
			<point x="207" y="322"/>
			<point x="226" y="356"/>
			<point x="270" y="366" type="curve" smooth="yes"/>
			<point x="296" y="372"/>
			<point x="312" y="380"/>
			<point x="334" y="392" type="curve"/>
			<point x="304" y="458" type="line"/>
			<point x="286" y="448"/>
			<point x="266" y="442"/>
			<point x="246" y="442" type="curve" smooth="yes"/>
			<point x="210" y="442"/>
			<point x="178" y="460"/>
			<point x="178" y="505" type="curve" smooth="yes"/>
			<point x="178" y="591"/>
			<point x="220" y="624"/>
			<point x="252" y="624" type="curve" smooth="yes"/>
			<point x="279" y="624"/>
			<point x="288" y="607"/>
			<point x="288" y="584" type="curve" smooth="yes"/>
			<point x="288" y="574"/>
			<point x="286" y="564"/>
			<point x="284" y="558" type="curve"/>
			<point x="294" y="566" type="line"/>
			<point x="160" y="566" type="line"/>
			<point x="160" y="500" type="line"/>
			<point x="360" y="500" type="line"/>
			<point x="368" y="516"/>
			<point x="378" y="552"/>
			<point x="378" y="580" type="curve" smooth="yes"/>
			<point x="378" y="650"/>
			<point x="348" y="708"/>
			<point x="266" y="708" type="curve" smooth="yes"/>
			<point x="176" y="708"/>
			<point x="76" y="626"/>
			<point x="76" y="502" type="curve" smooth="yes"/>
			<point x="76" y="414"/>
			<point x="134" y="360"/>
			<point x="220" y="360" type="curve"/>
			<point x="204" y="380" type="line"/>
			<point x="158" y="344"/>
			<point x="130" y="318"/>
			<point x="130" y="274" type="curve" smooth="yes"/>
			<point x="130" y="233"/>
			<point x="160" y="212"/>
		</contour>
	</outline>
</glyph>
<glyph name="ringacute.cap" format="2">
	<outline>
		<contour>
			<point x="146" y="696" type="curve" smooth="yes"/>
			<point x="232" y="696"/>
			<point x="292" y="744"/>
			<point x="292" y="806" type="curve" smooth="yes"/>
			<point x="292" y="852"/>
			<point x="258" y="886"/>
			<point x="200" y="888" type="curve"/>
			<point x="200" y="872" type="line"/>
			<point x="370" y="982" type="line"/>
			<point x="360" y="1000" type="line"/>
			<point x="210" y="1000" type="line"/>
			<point x="66" y="878" type="line" smooth="yes"/>
			<point x="36" y="852"/>
			<point x="16" y="824"/>
			<point x="16" y="788" type="curve" smooth="yes"/>
			<point x="16" y="722"/>
			<point x="70" y="696"/>
		</contour>
		<contour>
			<point x="148" y="754" type="curve" smooth="yes"/>
			<point x="128" y="754"/>
			<point x="116" y="768"/>
			<point x="116" y="790" type="curve" smooth="yes"/>
			<point x="116" y="816"/>
			<point x="136" y="840"/>
			<point x="160" y="840" type="curve" smooth="yes"/>
			<point x="180" y="840"/>
			<point x="192" y="826"/>
			<point x="192" y="804" type="curve" smooth="yes"/>
			<point x="192" y="778"/>
			<point x="172" y="754"/>
		</contour>
	</outline>
	<anchor name="_aboveUC" x="130" y="672"/>
</glyph>
<glyph name="two.onum" format="2">
	<advance width="486"/>
	<outline>
		<contour>
			<point x="-14" y="0" type="line"/>
			<point x="404" y="0" type="line"/>
			<point x="430" y="134" type="line"/>
			<point x="348" y="134" type="line" smooth="yes"/>
			<point x="320" y="134"/>
			<point x="274" y="130"/>
			<point x="242" y="126" type="curve"/>
			<point x="366" y="225"/>
			<point x="458" y="312"/>
			<point x="458" y="416" type="curve" smooth="yes"/>
			<point x="458" y="522"/>
			<point x="385" y="592"/>
			<point x="270" y="592" type="curve" smooth="yes"/>
			<point x="206" y="592"/>
			<point x="146" y="562"/>
			<point x="84" y="508" type="curve"/>
			<point x="156" y="420" type="line"/>
			<point x="190" y="446"/>
			<point x="216" y="466"/>
			<point x="250" y="466" type="curve" smooth="yes"/>
			<point x="283" y="466"/>
			<point x="302" y="440"/>
			<point x="302" y="400" type="curve" smooth="yes"/>
			<point x="302" y="316"/>
			<point x="180" y="216"/>
			<point x="6" y="100" type="curve"/>
		</contour>
	</outline>
</glyph>
<glyph name="zero.0ps" format="2">
	<advance width="556"/>
	<outline>
		<contour>
			<point x="313" y="134" type="line"/>
			<point x="423" y="134" type="line"/>
			<point x="255" y="504" type="line"/>
			<point x="145" y="504" type="line"/>
		</contour>
		<component base="zero.pnum"/>
	</outline>
</glyph>
<glyph name="zero.pnum" format="2">
	<advance width="556"/>
	<outline>
		<contour>
			<point x="234" y="-12" type="curve" smooth="yes"/>
			<point x="372" y="-12"/>
			<point x="528" y="114"/>
			<point x="528" y="412" type="curve" smooth="yes"/>
			<point x="528" y="574"/>
			<point x="442" y="646"/>
			<point x="332" y="646" type="curve" smooth="yes"/>
			<point x="194" y="646"/>
			<point x="36" y="518"/>
			<point x="36" y="220" type="curve" smooth="yes"/>
			<point x="36" y="60"/>
			<point x="124" y="-12"/>
		</contour>
		<contour>
			<point x="244" y="110" type="curve" smooth="yes"/>
			<point x="208" y="110"/>
			<point x="184" y="128"/>
			<point x="184" y="202" type="curve" smooth="yes"/>
			<point x="184" y="392"/>
			<point x="258" y="524"/>
			<point x="322" y="524" type="curve" smooth="yes"/>
			<point x="358" y="524"/>
			<point x="382" y="504"/>
			<point x="382" y="430" type="curve" smooth="yes"/>
			<point x="382" y="240"/>
			<point x="308" y="110"/>
		</contour>
	</outline>
</glyph>
